<?xml version="1.0" encoding="UTF-8"?>
<svg width="32px" height="32px" viewBox="0 0 32 32" version="1.1" xmlns="http://www.w3.org/2000/svg" xmlns:xlink="http://www.w3.org/1999/xlink">
    <!-- Generator: Sketch 51.3 (57544) - http://www.bohemiancoding.com/sketch -->
    <title>exploreHuelabs</title>
    <desc>Created with Sketch.</desc>
    <defs></defs>
    <g stroke="none" stroke-width="1" fill="none" fill-rule="evenodd">
        <g fill="#101010">
            <path d="M19.5025167,26 C18.6735167,26 18.0015167,25.328 18.0015167,24.5 C18.0015167,23.672 18.6735167,23 19.5025167,23 C20.3315167,23 21.0035167,23.672 21.0035167,24.5 C21.0035167,25.328 20.3315167,26 19.5025167,26 M13.9975167,16 C13.9975167,14.896 14.8945167,14 15.9995167,14 C17.1055167,14 18.0015167,14.896 18.0015167,16 C18.0015167,17.104 17.1055167,18 15.9995167,18 C14.8945167,18 13.9975167,17.104 13.9975167,16 M12.9965167,25 C11.3385167,25 9.99451671,23.657 9.99451671,22 C9.99451671,20.343 11.3385167,19 12.9965167,19 C14.6545167,19 15.9995167,20.343 15.9995167,22 C15.9995167,23.657 14.6545167,25 12.9965167,25 M27.8335167,26.451 L19.1665167,13.25 C19.0595167,13.087 19.0025167,12.896 19.0025167,12.701 L19.0025167,8 L21.0035167,8 C22.1055167,8 23.0055167,7.1 23.0055167,6 C23.0055167,4.9 22.1055167,4 21.0035167,4 L10.9955167,4 C9.89451671,4 8.99351671,4.9 8.99351671,6 C8.99351671,7.1 9.89451671,8 10.9955167,8 L12.9965167,8 L12.9965167,12.701 C12.9965167,12.896 12.9405167,13.087 12.8325167,13.25 L4.16551671,26.451 C3.72951671,27.116 4.20551671,28 5.00251671,28 L26.9965167,28 C27.7935167,28 28.2705167,27.116 27.8335167,26.451"></path>
        </g>
    </g>
</svg>