<?xml version="1.0" encoding="UTF-8"?>
<svg width="32px" height="32px" viewBox="0 0 32 32" version="1.1" xmlns="http://www.w3.org/2000/svg" xmlns:xlink="http://www.w3.org/1999/xlink">
    <!-- Generator: Sketch 51.3 (57544) - http://www.bohemiancoding.com/sketch -->
    <title>lightdirectionDownwards</title>
    <desc>Created with Sketch.</desc>
    <defs></defs>
    <g stroke="none" stroke-width="1" fill="none" fill-rule="evenodd">
        <g fill="#101010">
            <path d="M15.293,21.707 L11.293,17.707 C11.098,17.512 11,17.256 11,17 C11,16.744 11.098,16.488 11.293,16.293 C11.684,15.902 12.316,15.902 12.707,16.293 L15,18.586 L15,11 C15,10.447 15.447,10 16,10 C16.553,10 17,10.447 17,11 L17,18.586 L19.293,16.293 C19.684,15.902 20.316,15.902 20.707,16.293 C21.098,16.684 21.098,17.316 20.707,17.707 L16.707,21.707 C16.316,22.098 15.684,22.098 15.293,21.707 M28,16 C28,9.373 22.627,4 16,4 C9.373,4 4,9.373 4,16 C4,22.627 9.373,28 16,28 C22.627,28 28,22.627 28,16"></path>
        </g>
    </g>
</svg>