<?xml version="1.0" encoding="UTF-8"?>
<svg width="32px" height="32px" viewBox="0 0 32 32" version="1.1" xmlns="http://www.w3.org/2000/svg" xmlns:xlink="http://www.w3.org/1999/xlink">
    <!-- Generator: Sketch 51.3 (57544) - http://www.bohemiancoding.com/sketch -->
    <title>lightdirectionOmni</title>
    <desc>Created with Sketch.</desc>
    <defs></defs>
    <g stroke="none" stroke-width="1" fill="none" fill-rule="evenodd">
        <g fill="#101010">
            <path d="M22.707,18.707 C22.512,18.902 22.256,19 22,19 C21.744,19 21.488,18.902 21.293,18.707 C20.902,18.316 20.902,17.684 21.293,17.293 L22.586,16 L21.293,14.707 C20.902,14.316 20.902,13.684 21.293,13.293 C21.684,12.902 22.316,12.902 22.707,13.293 L24.707,15.293 C25.098,15.684 25.098,16.316 24.707,16.707 L22.707,18.707 Z M18.707,10.707 C18.512,10.902 18.256,11 18,11 C17.744,11 17.488,10.902 17.293,10.707 L16,9.414 L14.707,10.707 C14.316,11.098 13.684,11.098 13.293,10.707 C12.902,10.316 12.902,9.684 13.293,9.293 L15.293,7.293 C15.684,6.902 16.316,6.902 16.707,7.293 L18.707,9.293 C19.098,9.684 19.098,10.316 18.707,10.707 Z M16,19 C14.343,19 13,17.657 13,16 C13,14.343 14.343,13 16,13 C17.657,13 19,14.343 19,16 C19,17.657 17.657,19 16,19 Z M18.707,22.707 L16.707,24.707 C16.512,24.902 16.256,25 16,25 C15.744,25 15.488,24.902 15.293,24.707 L13.293,22.707 C12.902,22.316 12.902,21.684 13.293,21.293 C13.684,20.902 14.316,20.902 14.707,21.293 L16,22.586 L17.293,21.293 C17.684,20.902 18.316,20.902 18.707,21.293 C19.098,21.684 19.098,22.316 18.707,22.707 Z M10.707,17.293 C11.098,17.684 11.098,18.316 10.707,18.707 C10.512,18.902 10.256,19 10,19 C9.744,19 9.488,18.902 9.293,18.707 L7.293,16.707 C6.902,16.316 6.902,15.684 7.293,15.293 L9.293,13.293 C9.684,12.902 10.316,12.902 10.707,13.293 C11.098,13.684 11.098,14.316 10.707,14.707 L9.414,16 L10.707,17.293 Z M16,4 C9.373,4 4,9.373 4,16 C4,22.627 9.373,28 16,28 C22.627,28 28,22.627 28,16 C28,9.373 22.627,4 16,4 Z"></path>
        </g>
    </g>
</svg>