<?xml version="1.0" encoding="UTF-8"?>
<svg width="32px" height="32px" viewBox="0 0 32 32" version="1.1" xmlns="http://www.w3.org/2000/svg" xmlns:xlink="http://www.w3.org/1999/xlink">
    <!-- Generator: Sketch 51.3 (57544) - http://www.bohemiancoding.com/sketch -->
    <title>lightdirectionUpwards</title>
    <desc>Created with Sketch.</desc>
    <defs></defs>
    <g stroke="none" stroke-width="1" fill="none" fill-rule="evenodd">
        <g fill="#101010">
            <path d="M16.707,10.293 L20.707,14.293 C20.902,14.488 21,14.744 21,15 C21,15.256 20.902,15.512 20.707,15.707 C20.316,16.098 19.684,16.098 19.293,15.707 L17,13.414 L17,21 C17,21.553 16.553,22 16,22 C15.447,22 15,21.553 15,21 L15,13.414 L12.707,15.707 C12.316,16.098 11.684,16.098 11.293,15.707 C10.902,15.316 10.902,14.684 11.293,14.293 L15.293,10.293 C15.684,9.902 16.316,9.902 16.707,10.293 M4,16 C4,22.627 9.373,28 16,28 C22.627,28 28,22.627 28,16 C28,9.373 22.627,4 16,4 C9.373,4 4,9.373 4,16"></path>
        </g>
    </g>
</svg>