<?xml version="1.0" encoding="UTF-8"?>
<svg width="32px" height="32px" viewBox="0 0 32 32" version="1.1" xmlns="http://www.w3.org/2000/svg" xmlns:xlink="http://www.w3.org/1999/xlink">
    <!-- Generator: Sketch 51.3 (57544) - http://www.bohemiancoding.com/sketch -->
    <title>lightdirectionDiffusedLight</title>
    <desc>Created with Sketch.</desc>
    <defs></defs>
    <g stroke="none" stroke-width="1" fill="none" fill-rule="evenodd">
        <g fill="#101010">
            <path d="M4.293,13.6064 C3.902,13.2154 3.902,12.5834 4.293,12.1924 L12.192,4.2934 C12.583,3.9024 13.216,3.9024 13.606,4.2934 C13.997,4.6834 13.997,5.3164 13.606,5.7074 L5.707,13.6064 C5.316,13.9974 4.684,13.9974 4.293,13.6064 Z M13.1484,27.2744 C12.7574,26.8834 12.7574,26.2514 13.1484,25.8604 L25.8764,13.1324 C26.2664,12.7424 26.8994,12.7424 27.2904,13.1324 C27.6804,13.5234 27.6804,14.1564 27.2904,14.5464 L14.5624,27.2744 C14.1714,27.6654 13.5394,27.6654 13.1484,27.2744 Z M18.3936,27.707 C18.0026,27.316 18.0026,26.684 18.3936,26.293 L26.2926,18.394 C26.6836,18.003 27.3166,18.003 27.7066,18.394 C28.0976,18.784 28.0976,19.417 27.7066,19.808 L19.8076,27.707 C19.4166,28.098 18.7846,28.098 18.3936,27.707 Z M8.9053,25.8604 C8.5143,25.4694 8.5143,24.8374 8.9053,24.4464 L24.4623,8.8894 C24.8523,8.4994 25.4853,8.4994 25.8763,8.8894 C26.2663,9.2804 26.2663,9.9144 25.8763,10.3044 L10.3203,25.8604 C9.9293,26.2514 9.2963,26.2514 8.9053,25.8604 Z M6.0771,23.0322 C5.6861,22.6412 5.6861,22.0092 6.0771,21.6182 L21.6341,6.0612 C22.0241,5.6712 22.6571,5.6712 23.0481,6.0612 C23.4381,6.4522 23.4381,7.0852 23.0481,7.4752 L7.4911,23.0322 C7.1001,23.4232 6.4681,23.4232 6.0771,23.0322 Z M4.6631,18.7891 C4.2721,18.3991 4.2721,17.7661 4.6631,17.3751 L17.3911,4.6471 C17.7811,4.2571 18.4151,4.2571 18.8051,4.6471 C19.1951,5.0381 19.1951,5.6711 18.8051,6.0611 L6.0771,18.7891 C5.6861,19.1801 5.0541,19.1801 4.6631,18.7891 Z"></path>
        </g>
    </g>
</svg>