<?xml version="1.0" encoding="UTF-8"?>
<svg width="32px" height="32px" viewBox="0 0 32 32" version="1.1" xmlns="http://www.w3.org/2000/svg" xmlns:xlink="http://www.w3.org/1999/xlink">
    <!-- Generator: Sketch 51.3 (57544) - http://www.bohemiancoding.com/sketch -->
    <title>lightdirectionRightwards</title>
    <desc>Created with Sketch.</desc>
    <defs></defs>
    <g stroke="none" stroke-width="1" fill="none" fill-rule="evenodd">
        <g fill="#101010">
            <path d="M21.707,16.707 L17.707,20.707 C17.512,20.902 17.256,21 17,21 C16.744,21 16.488,20.902 16.293,20.707 C15.902,20.316 15.902,19.684 16.293,19.293 L18.586,17 L11,17 C10.447,17 10,16.553 10,16 C10,15.447 10.447,15 11,15 L18.586,15 L16.293,12.707 C15.902,12.316 15.902,11.684 16.293,11.293 C16.684,10.902 17.316,10.902 17.707,11.293 L21.707,15.293 C22.098,15.684 22.098,16.316 21.707,16.707 M16,4 C9.373,4 4,9.373 4,16 C4,22.627 9.373,28 16,28 C22.627,28 28,22.627 28,16 C28,9.373 22.627,4 16,4"></path>
        </g>
    </g>
</svg>