<?xml version="1.0" encoding="UTF-8"?>
<svg width="32px" height="32px" viewBox="0 0 32 32" version="1.1" xmlns="http://www.w3.org/2000/svg" xmlns:xlink="http://www.w3.org/1999/xlink">
    <!-- Generator: Sketch 51.3 (57544) - http://www.bohemiancoding.com/sketch -->
    <title>otherSecurity</title>
    <desc>Created with Sketch.</desc>
    <defs></defs>
    <g stroke="none" stroke-width="1" fill="none" fill-rule="evenodd">
        <g fill="#101010">
            <path d="M21.7987341,12.4212481 L15.5547341,19.9182481 C15.2387341,20.2962481 14.6767341,20.3372481 14.3117341,20.0082481 L10.3457341,16.4342481 C9.91973412,16.0522481 9.88273412,15.3932481 10.2607341,14.9622481 C10.5557341,14.6262481 11.0297341,14.5202481 11.4387341,14.6982481 L14.7687341,16.1582481 L20.5987341,11.2022481 C20.9327341,10.9182481 21.4237341,10.9352481 21.7377341,11.2412481 C22.0627341,11.5572481 22.0887341,12.0722481 21.7987341,12.4212481 M25.084,7.297 C23.321,7.148 18.389,6.329 16.773,4.365 C16.582,4.134 16.299,4 16,4 C15.701,4 15.418,4.134 15.228,4.365 C13.608,6.334 8.68,7.15 6.917,7.297 C6.399,7.341 6,7.774 6,8.294 L6,18.194 C6,25.885 12.536,27.971 15.993,28 C19.465,27.971 26,25.885 26,18.194 L26,8.294 C26,7.775 25.602,7.341 25.084,7.297"></path>
        </g>
    </g>
</svg>