<?xml version="1.0" encoding="UTF-8"?>
<svg width="32px" height="32px" viewBox="0 0 32 32" version="1.1" xmlns="http://www.w3.org/2000/svg" xmlns:xlink="http://www.w3.org/1999/xlink">
    <!-- Generator: Sketch 51.3 (57544) - http://www.bohemiancoding.com/sketch -->
    <title>otherChristmasTree</title>
    <desc>Created with Sketch.</desc>
    <defs></defs>
    <g stroke="none" stroke-width="1" fill="none" fill-rule="evenodd">
        <g fill="#101010">
            <path d="M25.8147,23.4881C26.1607,23.9471 26.0087,24.5051 25.4797,24.7271C25.4797,24.7271 21.5177,26.3911 17.9947,26.9391L17.9947,29.0002C17.9947,29.5522 17.5467,30.0002 16.9947,30.0002L14.9947,30.0002C14.4427,30.0002 13.9947,29.5522 13.9947,29.0002L13.9947,26.9371C10.4747,26.3871 6.5207,24.7271 6.5207,24.7271C5.9917,24.5051 5.8397,23.9471 6.1857,23.4881L9.8167,18.6472C11.3247,19.1891 13.9547,20.0152 16.0007,20.0152C18.0457,20.0152 20.6757,19.1891 22.1837,18.6472L25.8147,23.4881ZM8.5139,17.1894C7.9789,16.9674 7.8269,16.4104 8.1739,15.9523L12.2859,10.2503C13.1149,10.5423 14.6509,11.0133 15.9849,11.0133C17.3179,11.0133 18.8549,10.5423 19.6819,10.2503L23.7949,15.9523C24.1429,16.4104 23.9909,16.9674 23.4549,17.1894C23.4549,17.1894 19.0609,19.0154 15.9849,19.0154C12.9089,19.0154 8.5139,17.1894 8.5139,17.1894ZM11.7503,9.0048C11.2223,8.7767 11.0703,8.2087 11.4153,7.7397L15.3753,2.3517C15.7193,1.8828 16.2813,1.8828 16.6253,2.3517L20.5853,7.7397C20.9303,8.2087 20.7783,8.7767 20.2503,9.0048C20.2503,9.0048 17.8983,10.0157 16.0003,10.0157C14.1023,10.0157 11.7503,9.0048 11.7503,9.0048Z"></path>
        </g>
    </g>
</svg>