<?xml version="1.0" encoding="UTF-8"?>
<svg width="32px" height="32px" viewBox="0 0 32 32" version="1.1" xmlns="http://www.w3.org/2000/svg" xmlns:xlink="http://www.w3.org/1999/xlink">
    <!-- Generator: Sketch 51.3 (57544) - http://www.bohemiancoding.com/sketch -->
    <title>otherFire</title>
    <desc>Created with Sketch.</desc>
    <defs></defs>
    <g stroke="none" stroke-width="1" fill="none" fill-rule="evenodd">
        <g fill="#101010">
            <path d="M20.5961438,26.8926236 C19.2871438,27.6716236 17.7101438,28.1266236 15.9891438,28.1266236 C14.3151438,28.1266236 12.7231438,27.6516236 11.3721438,26.7776236 C11.1191438,26.6136236 10.9801438,26.3266236 10.9971438,26.0426236 C11.2551438,21.8036236 13.0441438,19.2356236 14.2311438,18.2416236 C14.5611438,17.9636236 15.0751438,18.2296236 15.0001438,18.6346236 C14.5061438,21.3306236 15.4231438,24.0826236 18.5091438,21.5356236 C18.7161438,21.3646236 19.0431438,21.3986236 19.2001438,21.6086236 C19.7281438,22.3166236 20.7511438,23.9396236 20.9921438,26.1276236 C21.0241438,26.4276236 20.8711438,26.7296236 20.5961438,26.8926236 M19.5021438,2.23362362 C18.8551438,1.66362362 17.8241438,2.21562362 17.9681438,3.03962362 C18.9491438,8.64062362 17.1321438,14.3596236 11.0151438,9.06662362 C10.6051438,8.71162362 9.95714382,8.78262362 9.64814382,9.21762362 C8.51814382,10.8056236 6.24414382,14.5986236 6.01014382,19.6966236 C5.75914382,25.1696236 10.1961438,29.9996236 15.9951438,29.9996236 C21.5701438,29.9996236 26.0001438,25.8146236 26.0001438,20.5496236 C26.0001438,10.4576236 22.0401438,4.46762362 19.5021438,2.23362362"></path>
        </g>
    </g>
</svg>