<?xml version="1.0" encoding="UTF-8"?>
<svg width="32px" height="32px" viewBox="0 0 32 32" version="1.1" xmlns="http://www.w3.org/2000/svg" xmlns:xlink="http://www.w3.org/1999/xlink">
    <!-- Generator: Sketch 51.3 (57544) - http://www.bohemiancoding.com/sketch -->
    <title>presetsEnergize</title>
    <desc>Created with Sketch.</desc>
    <defs></defs>
    <g stroke="none" stroke-width="1" fill="none" fill-rule="evenodd">
        <g fill="#101010">
            <path d="M25.9976696,15.955657 C25.9976696,21.482657 21.4826696,25.973657 15.9556696,25.997657 C11.5836696,25.977657 7.87266961,23.136657 6.53666961,19.205657 L14.2626696,15.132657 C14.5956696,14.956657 14.9956696,15.197657 14.9956696,15.574657 L14.9956696,17.560657 C14.9956696,17.927657 15.3776696,18.169657 15.7086696,18.013657 L25.1296696,13.571657 C25.4216696,13.434657 25.7636696,13.599657 25.8326696,13.913657 C25.9176696,14.306657 25.9976696,14.943657 25.9976696,15.955657 M17.5596696,4.09865702 C9.70966961,3.10865702 3.10866961,9.71065702 4.09866961,17.559657 C4.77166961,22.907657 9.09166961,27.226657 14.4396696,27.900657 C22.2896696,28.890657 28.8906696,22.288657 27.9006696,14.438657 C27.2266696,9.09165702 22.9076696,4.77165702 17.5596696,4.09865702"></path>
        </g>
    </g>
</svg>