<?xml version="1.0" encoding="UTF-8"?>
<svg width="32px" height="32px" viewBox="0 0 32 32" version="1.1" xmlns="http://www.w3.org/2000/svg" xmlns:xlink="http://www.w3.org/1999/xlink">
    <!-- Generator: Sketch 51.3 (57544) - http://www.bohemiancoding.com/sketch -->
    <title>presetsRelax</title>
    <desc>Created with Sketch.</desc>
    <defs></defs>
    <g stroke="none" stroke-width="1" fill="none" fill-rule="evenodd">
        <g fill="#101010">
            <path d="M23.887,22.068 C22.135,24.328 19.45,25.843 16.462,25.982 C16.382,25.985 16.304,25.993 16.224,25.994 C16.084,25.997 15.949,25.987 15.811,25.984 C10.394,25.824 6.033,21.392 6.003,15.944 C6.004,15.742 6.014,15.542 6.029,15.342 C6.057,14.953 6.182,14.337 6.335,13.977 C7.155,12.051 9.151,10.792 11.411,11.068 C13.741,11.353 15.616,13.675 15.664,16.022 C15.729,19.13 18.279,21.64 21.403,21.64 C22.075,21.64 22.717,21.518 23.313,21.298 C23.782,21.126 24.195,21.672 23.887,22.068 M16,4 C9.373,4 4,9.373 4,16 C4,22.627 9.373,28 16,28 C22.627,28 28,22.627 28,16 C28,9.373 22.627,4 16,4"></path>
        </g>
    </g>
</svg>