<?xml version="1.0" encoding="UTF-8"?>
<svg width="32px" height="32px" viewBox="0 0 32 32" version="1.1" xmlns="http://www.w3.org/2000/svg" xmlns:xlink="http://www.w3.org/1999/xlink">
    <!-- Generator: Sketch 51.3 (57544) - http://www.bohemiancoding.com/sketch -->
    <title>presetsNightlight</title>
    <desc>Created with Sketch.</desc>
    <defs></defs>
    <g stroke="none" stroke-width="1" fill="none" fill-rule="evenodd">
        <g fill="#101010">
            <path d="M17.1253676,8.13779842 C17.0473676,8.09579842 16.9993676,8.01279842 17.0023676,7.92379842 C17.0053676,7.83579842 17.0593676,7.75679842 17.1393676,7.72079842 L18.7883676,6.97379842 L19.1083676,5.19179842 C19.1243676,5.10479842 19.1883676,5.03379842 19.2733676,5.00879842 C19.3563676,4.98479842 19.4503676,5.01079842 19.5103676,5.07579842 L20.7303676,6.41379842 L22.5223676,6.16779842 C22.6103676,6.16179842 22.6973676,6.19579842 22.7473676,6.26879842 C22.7983676,6.34179842 22.8013676,6.43679842 22.7573676,6.51479842 L21.8613676,8.08679842 L22.6493676,9.71779842 C22.6883676,9.79679842 22.6793676,9.89279842 22.6243676,9.96079842 C22.5703676,10.0307984 22.4853676,10.0617984 22.3933676,10.0467984 L20.6203676,9.68179842 L19.3133676,10.9357984 C19.2703676,10.9777984 19.2113676,10.9997984 19.1523676,10.9997984 C19.1263676,10.9997984 19.0993676,10.9947984 19.0733676,10.9867984 C18.9893676,10.9547984 18.9313676,10.8807984 18.9213676,10.7927984 L18.7213676,8.99179842 L17.1253676,8.13779842 Z M26.9632676,12.7344984 C27.0122676,12.8054984 27.0152676,12.8984984 26.9732676,12.9724984 L26.3932676,13.9914984 L26.9022676,15.0454984 C26.9412676,15.1214984 26.9312676,15.2134984 26.8782676,15.2804984 C26.8252676,15.3474984 26.7422676,15.3784984 26.6542676,15.3634984 L25.5082676,15.1274984 L24.6622676,15.9374984 C24.6202676,15.9784984 24.5652676,16.0004984 24.5072676,16.0004984 C24.4822676,16.0004984 24.4552676,15.9964984 24.4312676,15.9864984 C24.3502676,15.9584984 24.2932676,15.8844984 24.2842676,15.7994984 L24.1532676,14.6354984 L23.1212676,14.0834984 C23.0452676,14.0434984 22.9992676,13.9634984 23.0022676,13.8784984 C23.0052676,13.7924984 23.0572676,13.7144984 23.1342676,13.6794984 L24.2012676,13.1964984 L24.4092676,12.0434984 C24.4242676,11.9594984 24.4862676,11.8904984 24.5682676,11.8674984 C24.6532676,11.8424984 24.7382676,11.8684984 24.7972676,11.9314984 L25.5872676,12.7974984 L26.7462676,12.6374984 C26.8312676,12.6304984 26.9152676,12.6644984 26.9632676,12.7344984 Z M21.9632676,16.8760984 C22.0122676,16.9470984 22.0152676,17.0390984 21.9732676,17.1140984 L21.3932676,18.1330984 L21.9022676,19.1870984 C21.9412676,19.2630984 21.9312676,19.3550984 21.8782676,19.4220984 C21.8252676,19.4890984 21.7422676,19.5210984 21.6542676,19.5050984 L20.5082676,19.2690984 L19.6622676,20.0790984 C19.6202676,20.1190984 19.5652676,20.1420984 19.5072676,20.1420984 C19.4822676,20.1420984 19.4552676,20.1370984 19.4312676,20.1280984 C19.3502676,20.1000984 19.2932676,20.0260984 19.2842676,19.9410984 L19.1532676,18.7770984 L18.1212676,18.2250984 C18.0452676,18.1850984 17.9992676,18.1050984 18.0022676,18.0190984 C18.0052676,17.9330984 18.0572676,17.8560984 18.1342676,17.8210984 L19.2012676,17.3370984 L19.4092676,16.1850984 C19.4242676,16.1020984 19.4862676,16.0330984 19.5682676,16.0090984 C19.6512676,15.9840984 19.7392676,16.0110984 19.7972676,16.0740984 L20.5862676,16.9390984 L21.7462676,16.7790984 C21.8312676,16.7720984 21.9152676,16.8060984 21.9632676,16.8760984 Z M22.6038676,22.9678984 C22.9598676,22.9808984 23.1308676,23.3968984 22.8828676,23.6538984 C20.5108676,26.1028984 17.0198676,27.4518984 13.2388676,26.8628984 C8.4718676,26.1188984 4.6878676,22.1828984 4.0888676,17.3738984 C3.3118676,11.1298984 7.7258676,5.76189842 13.5788676,5.00389842 C13.9208676,4.95889842 14.1708676,5.33889842 13.9738676,5.62289842 C10.9838676,9.93289842 11.4008676,15.9048984 15.2268676,19.7498984 C17.2728676,21.8048984 19.9238676,22.8718984 22.6038676,22.9678984 Z"></path>
        </g>
    </g>
</svg>