<?xml version="1.0" encoding="UTF-8"?>
<svg width="32px" height="32px" viewBox="0 0 32 32" version="1.1" xmlns="http://www.w3.org/2000/svg" xmlns:xlink="http://www.w3.org/1999/xlink">
    <!-- Generator: Sketch 51.3 (57544) - http://www.bohemiancoding.com/sketch -->
    <title>presetsConcentrate</title>
    <desc>Created with Sketch.</desc>
    <defs></defs>
    <g stroke="none" stroke-width="1" fill="none" fill-rule="evenodd">
        <g fill="#101010">
            <path d="M16,12 C13.791,12 12,13.791 12,16 C12,18.209 13.791,20 16,20 C18.209,20 20,18.209 20,16 C20,13.791 18.209,12 16,12 M16,22 C12.691,22 10,19.309 10,16 C10,12.691 12.691,10 16,10 C19.309,10 22,12.691 22,16 C22,19.309 19.309,22 16,22 M16,8 C11.582,8 8,11.582 8,16 C8,20.418 11.582,24 16,24 C20.418,24 24,20.418 24,16 C24,11.582 20.418,8 16,8 M16,26 C10.486,26 6,21.514 6,16 C6,10.486 10.486,6 16,6 C21.514,6 26,10.486 26,16 C26,21.514 21.514,26 16,26 M16,4 C9.373,4 4,9.373 4,16 C4,22.627 9.373,28 16,28 C22.627,28 28,22.627 28,16 C28,9.373 22.627,4 16,4"></path>
        </g>
    </g>
</svg>