<?xml version="1.0" encoding="UTF-8"?>
<svg width="32px" height="32px" viewBox="0 0 32 32" version="1.1" xmlns="http://www.w3.org/2000/svg" xmlns:xlink="http://www.w3.org/1999/xlink">
    <!-- Generator: Sketch 51.3 (57544) - http://www.bohemiancoding.com/sketch -->
    <title>presetsReading</title>
    <desc>Created with Sketch.</desc>
    <defs></defs>
    <g stroke="none" stroke-width="1" fill="none" fill-rule="evenodd">
        <g fill="#101010">
            <path d="M22,11 L10,11 C9.447,11 9,10.553 9,10 C9,9.447 9.447,9 10,9 L22,9 C22.553,9 23,9.447 23,10 C23,10.553 22.553,11 22,11 M22,15 L10,15 C9.447,15 9,14.553 9,14 C9,13.447 9.447,13 10,13 L22,13 C22.553,13 23,13.447 23,14 C23,14.553 22.553,15 22,15 M22,19 L10,19 C9.447,19 9,18.553 9,18 C9,17.447 9.447,17 10,17 L22,17 C22.553,17 23,17.447 23,18 C23,18.553 22.553,19 22,19 M22,23 L10,23 C9.447,23 9,22.553 9,22 C9,21.447 9.447,21 10,21 L22,21 C22.553,21 23,21.447 23,22 C23,22.553 22.553,23 22,23 M16,4 C9.384,4 4,9.383 4,15.999 C4,22.616 9.384,28 16,28 C22.616,28 28,22.616 28,15.999 C28,9.383 22.616,4 16,4"></path>
        </g>
    </g>
</svg>