<?xml version="1.0" encoding="UTF-8"?>
<svg width="32px" height="32px" viewBox="0 0 32 32" version="1.1" xmlns="http://www.w3.org/2000/svg" xmlns:xlink="http://www.w3.org/1999/xlink">
    <!-- Generator: Sketch 51.3 (57544) - http://www.bohemiancoding.com/sketch -->
    <title>routinesLeavingHome</title>
    <desc>Created with Sketch.</desc>
    <defs></defs>
    <g stroke="none" stroke-width="1" fill="none" fill-rule="evenodd">
        <g fill="#101010">
            <path d="M31.7077099,21.290252 C32.0987099,21.681252 32.0987099,22.313252 31.7077099,22.704252 L27.7107099,26.701252 C27.5157099,26.896252 27.2597099,26.994252 27.0037099,26.994252 C26.7477099,26.994252 26.4917099,26.896252 26.2967099,26.701252 C25.9057099,26.311252 25.9057099,25.678252 26.2967099,25.287252 L28.5867099,22.997252 L16.0007099,23.000252 C15.4477099,23.000252 15.0007099,22.553252 15.0007099,22.000252 C15.0007099,21.447252 15.4477099,21.000252 16.0007099,21.000252 L28.5867099,20.997252 L26.2967099,18.707252 C25.9057099,18.316252 25.9057099,17.684252 26.2967099,17.293252 C26.6867099,16.902252 27.3197099,16.902252 27.7107099,17.293252 L31.7077099,21.290252 Z M13.0007099,22.000252 C13.0007099,23.654252 14.3187099,25.000252 15.9737099,25.000252 L21.0007099,25.000252 L21.0007099,27.000252 C21.0007099,27.552252 20.5537099,28.000252 20.0007099,28.000252 L16.9867099,28.000252 L12.9867099,28.000252 L4.0007099,28.000252 C3.4477099,28.000252 3.0007099,27.553252 3.0007099,27.000252 L3.0147099,16.000252 L1.0457099,16.000252 C0.0947098974,16.000252 -0.360290103,14.832252 0.338709897,14.188252 L11.2787099,4.27525203 C11.6797099,3.90725203 12.2957099,3.90825203 12.6937099,4.27825203 L23.6377099,14.191252 C24.3927099,15.000252 23.8767099,16.000252 22.9287099,16.000252 L21.0147099,16.000252 L21.0007099,19.000252 L15.9737099,19.000252 C14.3187099,19.000252 13.0007099,20.346252 13.0007099,22.000252 Z"></path>
        </g>
    </g>
</svg>