<?xml version="1.0" encoding="UTF-8"?>
<svg width="32px" height="32px" viewBox="0 0 32 32" version="1.1" xmlns="http://www.w3.org/2000/svg" xmlns:xlink="http://www.w3.org/1999/xlink">
    <!-- Generator: Sketch 51.3 (57544) - http://www.bohemiancoding.com/sketch -->
    <title>routinesHomeAway</title>
    <desc>Created with Sketch.</desc>
    <defs></defs>
    <g stroke="none" stroke-width="1" fill="none" fill-rule="evenodd">
        <g fill="#101010">
            <path d="M15.9998226,20.000252 C17.1038226,20.000252 17.9998226,20.896252 17.9998226,22.000252 C17.9998226,23.104252 17.1038226,24.000252 15.9998226,24.000252 C14.8958226,24.000252 13.9998226,23.104252 13.9998226,22.000252 C13.9998226,20.896252 14.8958226,20.000252 15.9998226,20.000252 Z M15.9998226,13.000252 C17.1028226,13.000252 17.9998226,13.897252 17.9998226,15.000252 L17.9998226,17.000252 L13.9998226,17.000252 L13.9998226,15.000252 C13.9998226,13.897252 14.8968226,13.000252 15.9998226,13.000252 Z M20.9998226,25.000252 C20.9998226,25.553252 20.5518226,26.000252 19.9988226,26.000252 L11.9888226,26.000252 C11.4368226,26.000252 10.9878226,25.553252 10.9878226,25.000252 L10.9878226,17.000252 L11.9888226,17.000252 L11.9888226,15.000252 C11.9888226,12.794252 13.7848226,11.000252 15.9938226,11.000252 C18.2028226,11.000252 19.9988226,12.794252 19.9988226,15.000252 L19.9988226,17.000252 L20.9998226,17.000252 L20.9998226,25.000252 Z M27.6628226,14.191252 L16.7078226,4.27825203 C16.3088226,3.90825203 15.6918226,3.90725203 15.2918226,4.27525203 L4.33982257,14.188252 C3.63882257,14.832252 4.09482257,16.000252 5.04682257,16.000252 L6.98882257,16.000252 L6.97582257,27.000252 C6.97582257,27.553252 7.42382257,28.000252 7.97682257,28.000252 L17.0008226,28.000252 L21.0058226,28.000252 L23.9948226,28.000252 C24.5478226,28.000252 24.9958226,27.553252 24.9958226,27.000252 L25.0108226,16.000252 L26.9528226,16.000252 C27.9028226,16.000252 28.3598226,14.836252 27.6628226,14.191252 Z"></path>
        </g>
    </g>
</svg>