<?xml version="1.0" encoding="UTF-8"?>
<svg width="32px" height="32px" viewBox="0 0 32 32" version="1.1" xmlns="http://www.w3.org/2000/svg" xmlns:xlink="http://www.w3.org/1999/xlink">
    <!-- Generator: Sketch 51.3 (57544) - http://www.bohemiancoding.com/sketch -->
    <title>routinesTimers</title>
    <desc>Created with Sketch.</desc>
    <defs></defs>
    <g stroke="none" stroke-width="1" fill="none" fill-rule="evenodd">
        <g fill="#101010">
            <path d="M20.5115249,13.5016 C21.5785249,14.4246 22.1955249,15.7486 22.4045249,17.1266 L23.4885249,24.8546 C23.5795249,25.4576 23.1025249,25.9996 22.4785249,25.9996 L18.4995249,25.9996 C18.4995249,27.1046 17.6045249,27.9996 16.4995249,27.9996 C15.3955249,27.9996 14.4995249,27.1046 14.4995249,25.9996 L10.5215249,25.9996 C9.89652493,25.9996 9.41752493,25.4556 9.51152493,24.8516 L10.4995249,17.1096 C10.7125249,15.7396 11.3285249,14.4256 12.3895249,13.5056 C13.4715249,12.5686 14.8945249,11.9996 16.4525249,11.9996 C18.0095249,11.9996 19.4305249,12.5666 20.5115249,13.5016 Z M24.6893249,7.275 C25.0883249,7.655 25.1053249,8.289 24.7243249,8.689 C24.5283249,8.895 24.2643249,9 24.0003249,9 C23.7523249,9 23.5043249,8.909 23.3103249,8.724 C21.4623249,6.967 19.0433249,6 16.5003249,6 C13.9563249,6 11.5373249,6.967 9.68932493,8.724 C9.28832493,9.106 8.65532493,9.088 8.27532493,8.689 C7.89432493,8.289 7.91132493,7.655 8.31032493,7.275 C10.5333249,5.163 13.4413249,4 16.5003249,4 C19.5583249,4 22.4663249,5.163 24.6893249,7.275 Z M12.2000249,11.7135 C12.0050249,11.9045 11.7530249,11.9995 11.5000249,11.9995 C11.2400249,11.9995 10.9810249,11.8995 10.7860249,11.6995 C10.3990249,11.3055 10.4050249,10.6715 10.8000249,10.2855 C12.2820249,8.8325 14.3600249,7.9995 16.5000249,7.9995 C18.7310249,7.9995 20.7610249,8.8165 22.2140249,10.2995 C22.6000249,10.6935 22.5950249,11.3275 22.2000249,11.7135 C21.8040249,12.1015 21.1720249,12.0935 20.7860249,11.6995 C19.7120249,10.6035 18.1890249,9.9995 16.5000249,9.9995 C14.9030249,9.9995 13.2950249,10.6405 12.2000249,11.7135 Z"></path>
        </g>
    </g>
</svg>