<?xml version="1.0" encoding="UTF-8"?>
<svg width="32px" height="32px" viewBox="0 0 32 32" version="1.1" xmlns="http://www.w3.org/2000/svg" xmlns:xlink="http://www.w3.org/1999/xlink">
    <!-- Generator: Sketch 51.3 (57544) - http://www.bohemiancoding.com/sketch -->
    <title>routinesWakeUp</title>
    <desc>Created with Sketch.</desc>
    <defs></defs>
    <g stroke="none" stroke-width="1" fill="none" fill-rule="evenodd">
        <g fill="#101010">
            <path d="M29,22 C29.553,22 30,22.447 30,23 C30,23.553 29.553,24 29,24 L3,24 C2.447,24 2,23.553 2,23 C2,22.447 2.447,22 3,22 L7,22 C7,16.478 11.029,12 16,12 C20.971,12 25,16.478 25,22 L29,22 Z M24,26 C24.553,26 25,26.447 25,27 C25,27.553 24.553,28 24,28 L8,28 C7.447,28 7,27.553 7,27 C7,26.447 7.447,26 8,26 L24,26 Z M31,17 C31.55,17 32,17.45 32,18 C32,18.55 31.55,19 31,19 L27,19 C26.45,19 26,18.55 26,18 C26,17.45 26.45,17 27,17 L31,17 Z M6,18 C6,18.55 5.55,19 5,19 L1,19 C0.45,19 0,18.55 0,18 C0,17.45 0.45,17 1,17 L5,17 C5.55,17 6,17.45 6,18 Z M16,10 C15.45,10 15,9.55 15,9 L15,5 C15,4.45 15.45,4 16,4 C16.55,4 17,4.45 17,5 L17,9 C17,9.55 16.55,10 16,10 Z M23.7061,12.5342 C23.3171,12.9232 22.6811,12.9232 22.2921,12.5342 C21.9021,12.1452 21.9021,11.5092 22.2921,11.1202 L25.1201,8.2922 C25.5091,7.9022 26.1451,7.9022 26.5341,8.2922 C26.9231,8.6802 26.9231,9.3172 26.5341,9.7062 L23.7061,12.5342 Z M8.1201,12.5342 L5.2921,9.7062 C4.9021,9.3172 4.9021,8.6802 5.2921,8.2922 C5.6811,7.9022 6.3171,7.9022 6.7061,8.2922 L9.5341,11.1202 C9.9231,11.5092 9.9231,12.1452 9.5341,12.5342 C9.1451,12.9232 8.5091,12.9232 8.1201,12.5342 Z"></path>
        </g>
    </g>
</svg>