<?xml version="1.0" encoding="UTF-8"?>
<svg width="32px" height="32px" viewBox="0 0 32 32" version="1.1" xmlns="http://www.w3.org/2000/svg" xmlns:xlink="http://www.w3.org/1999/xlink">
    <!-- Generator: Sketch 51.3 (57544) - http://www.bohemiancoding.com/sketch -->
    <title>routinesSunset</title>
    <desc>Created with Sketch.</desc>
    <defs></defs>
    <g stroke="none" stroke-width="1" fill="none" fill-rule="evenodd">
        <g fill="#101010">
            <path d="M9.2217,23.0001 C9.9997,19.5541 12.7437,17.0001 15.9997,17.0001 C19.2557,17.0001 21.9997,19.5541 22.7787,23.0001 L9.2217,23.0001 Z M15.9997,15.0001 C20.6367,15.0001 24.4537,18.8361 24.9467,23.8901 C25.0037,24.4811 24.5407,25.0001 23.9457,25.0001 L8.0547,25.0001 C7.4587,25.0001 6.9957,24.4811 7.0537,23.8901 C7.5457,18.8361 11.3637,15.0001 15.9997,15.0001 Z M31,20.0001 C31.55,20.0001 32,20.4501 32,21.0001 C32,21.5501 31.55,22.0001 31,22.0001 L27,22.0001 C26.45,22.0001 26,21.5501 26,21.0001 C26,20.4501 26.45,20.0001 27,20.0001 L31,20.0001 Z M5,20.0001 C5.55,20.0001 6,20.4501 6,21.0001 C6,21.5501 5.55,22.0001 5,22.0001 L1,22.0001 C0.45,22.0001 0,21.5501 0,21.0001 C0,20.4501 0.45,20.0001 1,20.0001 L5,20.0001 Z M23.7061,15.5343 C23.3171,15.9233 22.6811,15.9233 22.2921,15.5343 C21.9021,15.1453 21.9021,14.5093 22.2921,14.1203 L25.1201,11.2923 C25.5091,10.9023 26.1451,10.9023 26.5341,11.2923 C26.9231,11.6803 26.9231,12.3173 26.5341,12.7063 L23.7061,15.5343 Z M8.1201,15.5343 L5.2921,12.7063 C4.9021,12.3173 4.9021,11.6803 5.2921,11.2923 C5.6811,10.9023 6.3171,10.9023 6.7061,11.2923 L9.5341,14.1203 C9.9231,14.5093 9.9231,15.1453 9.5341,15.5343 C9.1451,15.9233 8.5091,15.9233 8.1201,15.5343 Z M18.293,9.298 C18.684,8.907 19.316,8.907 19.707,9.298 C20.098,9.689 20.098,10.321 19.707,10.712 L16.712,13.707 C16.321,14.098 15.689,14.098 15.298,13.707 L12.303,10.712 C11.912,10.321 11.912,9.689 12.303,9.298 C12.498,9.103 12.754,9.005 13.01,9.005 C13.266,9.005 13.522,9.103 13.717,9.298 L15.001,10.582 L14.999,7 C14.999,6.448 15.446,6 15.999,6 C16.551,6 16.999,6.447 16.999,7 L17.001,10.59 L18.293,9.298 Z"></path>
        </g>
    </g>
</svg>