<?xml version="1.0" encoding="UTF-8"?>
<svg width="32px" height="32px" viewBox="0 0 32 32" version="1.1" xmlns="http://www.w3.org/2000/svg" xmlns:xlink="http://www.w3.org/1999/xlink">
    <!-- Generator: Sketch 51.3 (57544) - http://www.bohemiancoding.com/sketch -->
    <title>routinesSunrise</title>
    <desc>Created with Sketch.</desc>
    <defs></defs>
    <g stroke="none" stroke-width="1" fill="none" fill-rule="evenodd">
        <g fill="#101010">
            <path d="M16.6748,20.293 L19.6698,23.288 C20.0608,23.679 20.0608,24.312 19.6698,24.702 C19.4748,24.897 19.2188,24.995 18.9628,24.995 C18.7068,24.995 18.4508,24.897 18.2558,24.702 L16.9718,23.418 L16.9738,27 C16.9738,27.552 16.5268,28 15.9738,28 C15.4218,28 14.9738,27.553 14.9738,27 L14.9718,23.41 L13.6798,24.702 C13.2888,25.093 12.6558,25.093 12.2658,24.702 C11.8748,24.312 11.8748,23.679 12.2658,23.288 L15.2608,20.293 C15.6518,19.902 16.2838,19.902 16.6748,20.293 Z M31,17 C31.55,17 32,17.45 32,18 C32,18.55 31.55,19 31,19 L27,19 C26.45,19 26,18.55 26,18 C26,17.45 26.45,17 27,17 L31,17 Z M5,17 C5.55,17 6,17.45 6,18 C6,18.55 5.55,19 5,19 L1,19 C0.45,19 0,18.55 0,18 C0,17.45 0.45,17 1,17 L5,17 Z M16,10 C15.45,10 15,9.55 15,9 L15,5 C15,4.45 15.45,4 16,4 C16.55,4 17,4.45 17,5 L17,9 C17,9.55 16.55,10 16,10 Z M23.7061,12.5342 C23.3161,12.9232 22.6811,12.9232 22.2921,12.5342 C21.9021,12.1452 21.9021,11.5092 22.2921,11.1202 L25.1201,8.2922 C25.5091,7.9022 26.1451,7.9022 26.5341,8.2922 C26.9231,8.6802 26.9231,9.3172 26.5341,9.7062 L23.7061,12.5342 Z M8.1201,12.5342 L5.2921,9.7062 C4.9021,9.3172 4.9021,8.6802 5.2921,8.2922 C5.6811,7.9022 6.3161,7.9022 6.7061,8.2922 L9.5341,11.1202 C9.9231,11.5092 9.9231,12.1452 9.5341,12.5342 C9.1451,12.9232 8.5091,12.9232 8.1201,12.5342 Z M15.9629,12 C20.9339,12 24.9629,16.408 24.9629,22 L20.8429,22 L17.4649,18.623 C16.6349,17.793 15.2909,17.793 14.4609,18.623 L11.0829,22 L6.9629,22 C6.9629,16.408 10.9919,12 15.9629,12 Z"></path>
        </g>
    </g>
</svg>