<?xml version="1.0" encoding="UTF-8"?>
<svg width="32px" height="32px" viewBox="0 0 32 32" version="1.1" xmlns="http://www.w3.org/2000/svg" xmlns:xlink="http://www.w3.org/1999/xlink">
    <!-- Generator: Sketch 51.3 (57544) - http://www.bohemiancoding.com/sketch -->
    <title>routinesPersonal</title>
    <desc>Created with Sketch.</desc>
    <defs></defs>
    <g stroke="none" stroke-width="1" fill="none" fill-rule="evenodd">
        <g fill="#101010">
            <path d="M17.406,8.484 L17,16 C16.971,16.52 16.571,16.932 16.071,16.992 L16,17 L11.552,17.406 C10.776,17.499 10.072,16.944 9.979,16.167 C9.886,15.39 10.441,14.686 11.218,14.593 C11.329,14.58 11.446,14.581 11.552,14.593 L14.939,14.873 L14.593,8.484 C14.552,7.708 15.147,7.044 15.924,7.002 C16.7,6.96 17.364,7.555 17.406,8.332 C17.409,8.382 17.409,8.434 17.406,8.484 M16,4 C9.373,4 4,9.373 4,16 C4,22.627 9.373,28 16,28 C22.627,28 28,22.627 28,16 C28,9.373 22.627,4 16,4"></path>
        </g>
    </g>
</svg>