<?xml version="1.0" encoding="UTF-8"?>
<svg width="32px" height="32px" viewBox="0 0 32 32" version="1.1" xmlns="http://www.w3.org/2000/svg" xmlns:xlink="http://www.w3.org/1999/xlink">
    <!-- Generator: Sketch 51.3 (57544) - http://www.bohemiancoding.com/sketch -->
    <title>routinesGoToSleep</title>
    <desc>Created with Sketch.</desc>
    <defs></defs>
    <g stroke="none" stroke-width="1" fill="none" fill-rule="evenodd">
        <g fill="#101010">
            <path d="M22.0000288,14.0001775 L17.0000288,14.0001775 C16.6120288,14.0001775 16.2590288,13.7751775 16.0950288,13.4241775 C15.9300288,13.0731775 15.9830288,12.6581775 16.2310288,12.3591775 L19.8650288,8.00017753 L17.0000288,8.00017753 C16.4470288,8.00017753 16.0000288,7.55317753 16.0000288,7.00017753 C16.0000288,6.44717753 16.4470288,6.00017753 17.0000288,6.00017753 L22.0000288,6.00017753 C22.3880288,6.00017753 22.7410288,6.22517753 22.9050288,6.57617753 C23.0700288,6.92717753 23.0170288,7.34217753 22.7690288,7.64117753 L19.1350288,12.0001775 L22.0000288,12.0001775 C22.5530288,12.0001775 23.0000288,12.4471775 23.0000288,13.0001775 C23.0000288,13.5531775 22.5530288,14.0001775 22.0000288,14.0001775 Z M27.0000288,21.0001775 L24.0000288,21.0001775 C23.6210288,21.0001775 23.2750288,20.7861775 23.1050288,20.4471775 C22.9370288,20.1081775 22.9730288,19.7031775 23.2000288,19.4001775 L25.0000288,17.0001775 L24.0000288,17.0001775 C23.4470288,17.0001775 23.0000288,16.5531775 23.0000288,16.0001775 C23.0000288,15.4471775 23.4470288,15.0001775 24.0000288,15.0001775 L27.0000288,15.0001775 C27.3790288,15.0001775 27.7250288,15.2141775 27.8950288,15.5531775 C28.0630288,15.8921775 28.0270288,16.2971775 27.8000288,16.6001775 L26.0000288,19.0001775 L27.0000288,19.0001775 C27.5530288,19.0001775 28.0000288,19.4471775 28.0000288,20.0001775 C28.0000288,20.5531775 27.5530288,21.0001775 27.0000288,21.0001775 Z M16.2480288,20.0909775 C18.4790288,22.3329775 21.3710288,23.4959775 24.2950288,23.6009775 C24.6840288,23.6149775 24.8700288,24.0689775 24.6000288,24.3489775 C22.0130288,27.0219775 18.2030288,28.4929775 14.0770288,27.8499775 C8.87802881,27.0389775 4.75002881,22.7439775 4.09702881,17.4989775 C3.24902881,10.6869775 8.06402881,4.83097753 14.4490288,4.00397753 C14.8220288,3.95497753 15.0960288,4.36897753 14.8810288,4.67997753 C11.6180288,9.38097753 12.0730288,15.8959775 16.2480288,20.0909775 Z"></path>
        </g>
    </g>
</svg>