<?xml version="1.0" encoding="UTF-8"?>
<svg width="32px" height="32px" viewBox="0 0 32 32" version="1.1" xmlns="http://www.w3.org/2000/svg" xmlns:xlink="http://www.w3.org/1999/xlink">
    <!-- Generator: Sketch 51.3 (57544) - http://www.bohemiancoding.com/sketch -->
    <title>routinesComingHome</title>
    <desc>Created with Sketch.</desc>
    <defs></defs>
    <g stroke="none" stroke-width="1" fill="none" fill-rule="evenodd">
        <g fill="#101010">
            <path d="M31.0141543,21.000152 C31.5671543,21.000152 32.0141543,21.447152 32.0141543,22.000152 C32.0141543,22.553152 31.5671543,23.000152 31.0141543,23.000152 L18.4281543,23.003152 L20.7211543,25.293152 C21.1121543,25.684152 21.1121543,26.316152 20.7211543,26.707152 C20.5261543,26.902152 20.2701543,27.000152 20.0141543,27.000152 C19.7581543,27.000152 19.5021543,26.902152 19.3071543,26.707152 L15.3071543,22.710152 C14.9161543,22.319152 14.9161543,21.687152 15.3071543,21.296152 L19.3071543,17.293152 C19.5021543,17.098152 19.7581543,17.000152 20.0141543,17.000152 C20.2701543,17.000152 20.5261543,17.098152 20.7211543,17.293152 C21.1121543,17.684152 21.1121543,18.316152 20.7211543,18.707152 L18.4281543,21.003152 L21.0351543,21.002152 L31.0141543,21.000152 Z M12.9731543,21.997252 C12.9731543,22.798252 13.2851543,23.552252 13.8531543,24.118252 L17.7401543,28.000252 L17.0061543,28.000252 L13.0011543,28.000252 L4.01515434,28.000252 C3.46215434,28.000252 3.01415434,27.553252 3.01415434,27.000252 L3.02815434,16.000252 L1.04615434,16.000252 C0.0951543352,16.000252 -0.360845665,14.832252 0.339154335,14.188252 L11.2911543,4.27525203 C11.6931543,3.90725203 12.3091543,3.90825203 12.7081543,4.27825203 L23.6631543,14.191252 C24.3601543,14.836252 23.9041543,16.000252 22.9531543,16.000252 L22.2071543,16.000252 C22.1711543,15.960252 22.1411543,15.917252 22.1031543,15.879252 C21.5361543,15.312252 20.7811543,15.000252 19.9791543,15.000252 C19.1761543,15.000252 18.4221543,15.312252 17.8551543,15.879252 L13.8531543,19.876252 C13.2851543,20.442252 12.9731543,21.196252 12.9731543,21.997252 Z"></path>
        </g>
    </g>
</svg>