<?xml version="1.0" encoding="UTF-8"?>
<svg width="32px" height="32px" viewBox="0 0 32 32" version="1.1" xmlns="http://www.w3.org/2000/svg" xmlns:xlink="http://www.w3.org/1999/xlink">
    <!-- Generator: Sketch 51.3 (57544) - http://www.bohemiancoding.com/sketch -->
    <title>settingsMessaging</title>
    <desc>Created with Sketch.</desc>
    <defs></defs>
    <g stroke="none" stroke-width="1" fill="none" fill-rule="evenodd">
        <g fill="#101010">
            <path d="M16,28 C18.21,28 20,26.21 20,24 L12,24 C12,26.21 13.79,28 16,28 M25,18 C24.52,18 24,18 24,17 L24,14 C24,10.329 21.397,7.167 17.973,6.266 C17.985,6.178 18,6.091 18,6 C18,4.896 17.104,4 16,4 C14.896,4 14,4.896 14,6 C14,6.091 14.015,6.178 14.027,6.266 C10.603,7.167 8,10.329 8,14 L8,17 C8,18 7.48,18 7,18 C5.896,18 5,18.896 5,20 C5,21.104 5.896,22 7,22 L25,22 C26.104,22 27,21.104 27,20 C27,18.896 26.104,18 25,18"></path>
        </g>
    </g>
</svg>