<?xml version="1.0" encoding="UTF-8"?>
<svg width="32px" height="32px" viewBox="0 0 32 32" version="1.1" xmlns="http://www.w3.org/2000/svg" xmlns:xlink="http://www.w3.org/1999/xlink">
    <!-- Generator: Sketch 51.3 (57544) - http://www.bohemiancoding.com/sketch -->
    <title>settingsHomekitSiri</title>
    <desc>Created with Sketch.</desc>
    <defs></defs>
    <g stroke="none" stroke-width="1" fill="none" fill-rule="evenodd">
        <g fill="#101010">
            <path d="M22.906491,15.414252 C22.713491,15.596252 22.465491,15.686252 22.219491,15.686252 C21.953491,15.686252 21.688491,15.581252 21.490491,15.373252 C20.046491,13.843252 18.090491,13.000252 15.985491,13.000252 C13.881491,13.000252 11.926491,13.842252 10.481491,15.371252 C10.100491,15.772252 9.46849098,15.790252 9.06549098,15.412252 C8.66449098,15.032252 8.64549098,14.399252 9.02449098,13.998252 C10.826491,12.093252 13.363491,11.000252 15.985491,11.000252 C18.609491,11.000252 21.146491,12.094252 22.947491,14.000252 C23.326491,14.402252 23.307491,15.035252 22.906491,15.414252 M20.518491,18.659252 C20.332491,18.812252 20.106491,18.888252 19.882491,18.888252 C19.593491,18.888252 19.307491,18.764252 19.108491,18.524252 C18.870491,18.235252 18.593491,17.977252 18.283491,17.761252 C16.910491,16.798252 14.988491,16.763252 13.583491,17.678252 C13.306491,17.857252 13.049491,18.071252 12.817491,18.315252 C12.436491,18.718252 11.803491,18.734252 11.402491,18.353252 C11.001491,17.974252 10.984491,17.341252 11.364491,16.940252 C11.704491,16.582252 12.083491,16.266252 12.491491,16.001252 C14.566491,14.650252 17.401491,14.697252 19.436491,16.125252 C19.891491,16.446252 20.301491,16.824252 20.653491,17.251252 C21.006491,17.677252 20.945491,18.308252 20.518491,18.659252 M18.281491,21.573252 C18.094491,21.727252 17.868491,21.803252 17.644491,21.803252 C17.355491,21.803252 17.069491,21.679252 16.872491,21.440252 C16.803491,21.357252 16.721491,21.282252 16.630491,21.217252 C16.240491,20.945252 15.682491,20.933252 15.278491,21.194252 C15.197491,21.248252 15.122491,21.310252 15.056491,21.380252 C14.674491,21.782252 14.041491,21.798252 13.640491,21.419252 C13.238491,21.039252 13.220491,20.406252 13.601491,20.005252 C13.775491,19.822252 13.970491,19.659252 14.183491,19.520252 C15.259491,18.817252 16.732491,18.843252 17.785491,19.584252 C18.023491,19.752252 18.233491,19.947252 18.415491,20.165252 C18.767491,20.591252 18.707491,21.222252 18.281491,21.573252 M15.986491,25.000252 C15.433491,25.000252 14.985491,24.553252 14.985491,24.000252 C14.985491,23.447252 15.433491,23.000252 15.986491,23.000252 C16.539491,23.000252 16.987491,23.447252 16.987491,24.000252 C16.987491,24.553252 16.539491,25.000252 15.986491,25.000252 M27.663491,14.191252 L16.708491,4.27825203 C16.308491,3.90825203 15.692491,3.90725203 15.292491,4.27525203 L4.34049098,14.188252 C3.63849098,14.832252 4.09449098,16.000252 5.04749098,16.000252 L7.01349098,16.000252 L7.00049098,27.000252 C7.00049098,27.553252 7.44849098,28.000252 8.00149098,28.000252 L23.985491,28.000252 C24.538491,28.000252 24.986491,27.553252 24.986491,27.000252 L25.000491,16.000252 L26.953491,16.000252 C27.903491,16.000252 28.360491,14.836252 27.663491,14.191252"></path>
        </g>
    </g>
</svg>