<?xml version="1.0" encoding="UTF-8"?>
<svg width="32px" height="32px" viewBox="0 0 32 32" version="1.1" xmlns="http://www.w3.org/2000/svg" xmlns:xlink="http://www.w3.org/1999/xlink">
    <!-- Generator: Sketch 51.3 (57544) - http://www.bohemiancoding.com/sketch -->
    <title>settingsHttpsConnected</title>
    <desc>Created with Sketch.</desc>
    <defs></defs>
    <g stroke="none" stroke-width="1" fill="none" fill-rule="evenodd">
        <g fill="#101010">
            <path d="M16,24 C14.343,24 13,22.657 13,21 C13,19.343 14.343,18 16,18 C17.656,18 19,19.343 19,21 C19,22.657 17.656,24 16,24 Z M13,10 C13,8.346 14.346,7 16,7 C17.654,7 19,8.346 19,10 L19,12.972 L13,12.984 L13,10 Z M23,12.963 L23,10 C23,6.141 19.859,3 16,3 C12.141,3 9,6.141 9,10 L9,12.993 L6,13 L6,26.559 C6,27.903 7.09,28.993 8.435,28.993 L23.565,28.95 C24.91,28.95 26,27.859 26,26.515 L26,12.956 L23,12.963 Z"></path>
        </g>
    </g>
</svg>