<?xml version="1.0" encoding="UTF-8"?>
<svg width="32px" height="32px" viewBox="0 0 32 32" version="1.1" xmlns="http://www.w3.org/2000/svg" xmlns:xlink="http://www.w3.org/1999/xlink">
    <!-- Generator: Sketch 51.3 (57544) - http://www.bohemiancoding.com/sketch -->
    <title>settingsAppleWatch</title>
    <desc>Created with Sketch.</desc>
    <defs></defs>
    <g stroke="none" stroke-width="1" fill="none" fill-rule="evenodd">
        <g fill="#101010">
            <path d="M24.846,11.0003 C25.483,11.0003 26,11.5173 26,12.1543 L26,13.8463 C26,14.4833 25.483,15.0003 24.846,15.0003 L24,15.0003 L24,22.0003 C24,23.6503 22.65,25.0003 21,25.0003 L11,25.0003 C9.35,25.0003 8,23.6503 8,22.0003 L8,10.0003 C8,8.3503 9.35,7.0003 11,7.0003 L21,7.0003 C22.65,7.0003 24,8.3503 24,10.0003 L24,11.0003 L24.846,11.0003 Z M22,22.0003 L22,10.0003 C22,9.4583 21.542,9.0003 21,9.0003 L11,9.0003 C10.458,9.0003 10,9.4583 10,10.0003 L10,22.0003 C10,22.5423 10.458,23.0003 11,23.0003 L21,23.0003 C21.542,23.0003 22,22.5423 22,22.0003 Z M20.5,10.0003 C20.776,10.0003 21,10.2243 21,10.5003 L21,21.5003 C21,21.7763 20.776,22.0003 20.5,22.0003 L11.5,22.0003 C11.224,22.0003 11,21.7763 11,21.5003 L11,10.5003 C11,10.2243 11.224,10.0003 11.5,10.0003 L20.5,10.0003 Z M11.9765,29.2776 L10.9995,26.0006 L20.9995,26.0006 L20.0235,29.2776 C19.8945,29.7076 19.5065,30.0006 19.0665,30.0006 L12.9335,30.0006 C12.4935,30.0006 12.1055,29.7076 11.9765,29.2776 Z M20.0234,2.723 L21.0004,6 L11.0004,6 L11.9764,2.723 C12.1054,2.293 12.4934,2 12.9334,2 L19.0664,2 C19.5064,2 19.8944,2.293 20.0234,2.723 Z"></path>
        </g>
    </g>
</svg>