<?xml version="1.0" encoding="UTF-8"?>
<svg width="32px" height="32px" viewBox="0 0 32 32" version="1.1" xmlns="http://www.w3.org/2000/svg" xmlns:xlink="http://www.w3.org/1999/xlink">
    <!-- Generator: Sketch 51.3 (57544) - http://www.bohemiancoding.com/sketch -->
    <title>settingsDevices</title>
    <desc>Created with Sketch.</desc>
    <defs></defs>
    <g stroke="none" stroke-width="1" fill="none" fill-rule="evenodd">
        <g fill="#101010">
            <path d="M21.9999249,13.9996 C22.5499249,13.9996 22.9999249,14.4496 22.9999249,14.9996 L22.9999249,26.9996 C22.9999249,27.5496 22.5499249,27.9996 21.9999249,27.9996 L9.99992493,27.9996 C9.44992493,27.9996 8.99992493,27.5496 8.99992493,26.9996 L8.99992493,14.9996 C8.99992493,14.4496 9.44992493,13.9996 9.99992493,13.9996 L21.9999249,13.9996 Z M17.9999249,23.9996 L17.9999249,17.9996 C17.9999249,17.4496 17.5499249,16.9996 16.9999249,16.9996 L14.9999249,16.9996 C14.4499249,16.9996 13.9999249,17.4496 13.9999249,17.9996 L13.9999249,23.9996 C13.9999249,24.5496 14.4499249,24.9996 14.9999249,24.9996 L16.9999249,24.9996 C17.5499249,24.9996 17.9999249,24.5496 17.9999249,23.9996 Z M16.4999249,20.9996 C16.7749249,20.9996 16.9999249,21.2246 16.9999249,21.4996 L16.9999249,23.4996 C16.9999249,23.7746 16.7749249,23.9996 16.4999249,23.9996 L15.4999249,23.9996 C15.2249249,23.9996 14.9999249,23.7746 14.9999249,23.4996 L14.9999249,21.4996 C14.9999249,21.2246 15.2249249,20.9996 15.4999249,20.9996 L16.4999249,20.9996 Z M24.1893249,7.275 C24.5883249,7.655 24.6053249,8.289 24.2243249,8.689 C24.0283249,8.895 23.7643249,9 23.5003249,9 C23.2523249,9 23.0043249,8.909 22.8103249,8.724 C20.9623249,6.967 18.5433249,6 16.0003249,6 C13.4563249,6 11.0373249,6.967 9.18932493,8.724 C8.78832493,9.106 8.15532493,9.088 7.77532493,8.689 C7.39432493,8.289 7.41132493,7.655 7.81032493,7.275 C10.0333249,5.163 12.9413249,4 16.0003249,4 C19.0583249,4 21.9663249,5.163 24.1893249,7.275 Z M11.7001249,11.7135 C11.5051249,11.9045 11.2531249,11.9995 11.0001249,11.9995 C10.7401249,11.9995 10.4811249,11.8995 10.2861249,11.6995 C9.89912493,11.3055 9.90512493,10.6715 10.3001249,10.2855 C11.7821249,8.8325 13.8601249,7.9995 16.0001249,7.9995 C18.2311249,7.9995 20.2611249,8.8165 21.7141249,10.2995 C22.1001249,10.6935 22.0951249,11.3275 21.7001249,11.7135 C21.3041249,12.1015 20.6721249,12.0935 20.2861249,11.6995 C19.2121249,10.6035 17.6891249,9.9995 16.0001249,9.9995 C14.4031249,9.9995 12.7951249,10.6405 11.7001249,11.7135 Z"></path>
        </g>
    </g>
</svg>