<?xml version="1.0" encoding="UTF-8"?>
<svg width="32px" height="32px" viewBox="0 0 32 32" version="1.1" xmlns="http://www.w3.org/2000/svg" xmlns:xlink="http://www.w3.org/1999/xlink">
    <!-- Generator: Sketch 51.3 (57544) - http://www.bohemiancoding.com/sketch -->
    <title>settingsWidgetsWatch</title>
    <desc>Created with Sketch.</desc>
    <defs></defs>
    <g stroke="none" stroke-width="1" fill="none" fill-rule="evenodd">
        <g fill="#101010">
            <path d="M24.846,11.0003 C25.483,11.0003 26,11.5173 26,12.1543 L26,13.8463 C26,14.4833 25.483,15.0003 24.846,15.0003 L24,15.0003 L24,22.0003 C24,23.6503 22.65,25.0003 21,25.0003 L11,25.0003 C9.35,25.0003 8,23.6503 8,22.0003 L8,10.0003 C8,8.3503 9.35,7.0003 11,7.0003 L21,7.0003 C22.65,7.0003 24,8.3503 24,10.0003 L24,11.0003 L24.846,11.0003 Z M20,17.0003 C20.553,17.0003 21,16.5533 21,16.0003 C21,15.4473 20.553,14.9993 20,14.9993 C19.447,14.9993 19,15.4473 19,16.0003 C19,16.5533 19.447,17.0003 20,17.0003 Z M18.995,20.0003 C19.547,20.0003 19.995,19.5523 19.995,19.0003 C19.995,18.4473 19.547,18.0003 18.995,18.0003 C18.442,18.0003 17.995,18.4473 17.995,19.0003 C17.995,19.5523 18.442,20.0003 18.995,20.0003 Z M16,22.0003 C16.828,22.0003 17.5,21.3283 17.5,20.5003 C17.5,19.6723 16.828,19.0003 16,19.0003 C15.172,19.0003 14.5,19.6723 14.5,20.5003 C14.5,21.3283 15.172,22.0003 16,22.0003 Z M16,14.0003 C14.895,14.0003 14,14.8953 14,16.0003 C14,17.1043 14.895,18.0003 16,18.0003 C17.105,18.0003 18,17.1043 18,16.0003 C18,14.8953 17.105,14.0003 16,14.0003 Z M12.995,14.0003 C13.547,14.0003 13.995,13.5523 13.995,13.0003 C13.995,12.4473 13.547,12.0003 12.995,12.0003 C12.442,12.0003 11.995,12.4473 11.995,13.0003 C11.995,13.5523 12.442,14.0003 12.995,14.0003 Z M12.995,20.0003 C13.547,20.0003 13.995,19.5523 13.995,19.0003 C13.995,18.4473 13.547,18.0003 12.995,18.0003 C12.442,18.0003 11.995,18.4473 11.995,19.0003 C11.995,19.5523 12.442,20.0003 12.995,20.0003 Z M10.995,16.0003 C10.995,16.5523 11.442,17.0003 11.995,17.0003 C12.547,17.0003 12.995,16.5523 12.995,16.0003 C12.995,15.4473 12.547,15.0003 11.995,15.0003 C11.442,15.0003 10.995,15.4473 10.995,16.0003 Z M16,10.0003 C15.172,10.0003 14.5,10.6723 14.5,11.5003 C14.5,12.3283 15.172,13.0003 16,13.0003 C16.828,13.0003 17.5,12.3283 17.5,11.5003 C17.5,10.6723 16.828,10.0003 16,10.0003 Z M18.995,12.0003 C18.442,12.0003 17.995,12.4473 17.995,13.0003 C17.995,13.5523 18.442,14.0003 18.995,14.0003 C19.547,14.0003 19.995,13.5523 19.995,13.0003 C19.995,12.4473 19.547,12.0003 18.995,12.0003 Z M11.9775,29.2776 L10.9995,26.0006 L20.9995,26.0006 L20.0225,29.2776 C19.8955,29.7076 19.5065,30.0006 19.0665,30.0006 L12.9335,30.0006 C12.4935,30.0006 12.1045,29.7076 11.9775,29.2776 Z M20.0224,2.723 L21.0004,6 L11.0004,6 L11.9774,2.723 C12.1044,2.293 12.4934,2 12.9334,2 L19.0664,2 C19.5064,2 19.8954,2.293 20.0224,2.723 Z"></path>
        </g>
    </g>
</svg>