<?xml version="1.0" encoding="UTF-8"?>
<svg width="32px" height="32px" viewBox="0 0 32 32" version="1.1" xmlns="http://www.w3.org/2000/svg" xmlns:xlink="http://www.w3.org/1999/xlink">
    <!-- Generator: Sketch 51.3 (57544) - http://www.bohemiancoding.com/sketch -->
    <title>tabbarExplore</title>
    <desc>Created with Sketch.</desc>
    <defs></defs>
    <g stroke="none" stroke-width="1" fill="none" fill-rule="evenodd">
        <g fill="#101010">
            <path d="M27.9824287,5.01955322 C27.7154287,13.0875532 24.3274287,17.5405532 20.8414287,19.9955532 C20.8824287,20.1225532 21.9954287,23.7575532 17.7294287,27.6875532 C17.1724287,28.2005532 16.2644287,27.9005532 16.0924287,27.1645532 L15.0324287,22.6235532 C13.8044287,22.9265532 13.0004287,22.9825532 13.0004287,22.9825532 L11.0004287,20.9825532 L9.00042869,18.9825532 C9.00042869,18.9825532 9.05642869,18.1825532 9.35742869,16.9595532 L4.77942869,15.8905532 C4.04342869,15.7185532 3.74342869,14.8105532 4.25542869,14.2545532 C8.25742869,9.91055322 11.9604287,11.1445532 11.9604287,11.1445532 C14.4004287,7.62355322 18.8154287,4.26955322 26.9634287,4.00055322 C27.5284287,3.98155322 28.0024287,4.45455322 27.9824287,5.01955322 Z M18.0004287,10.9825532 C18.0004287,12.6395532 19.3434287,13.9825532 21.0004287,13.9825532 C22.6564287,13.9825532 24.0004287,12.6395532 24.0004287,10.9825532 C24.0004287,9.32655322 22.6564287,7.98255322 21.0004287,7.98255322 C19.3434287,7.98255322 18.0004287,9.32655322 18.0004287,10.9825532 Z M9.58832869,22.3946532 L9.59532869,22.4006532 C11.0613287,23.8676532 10.6463287,26.4206532 8.72632869,27.2076532 C7.82832869,27.5756532 6.65232869,27.8576532 5.11432869,27.9506532 C4.50632869,27.9876532 3.99632869,27.4766532 4.03232869,26.8686532 C4.12532869,25.3306532 4.40732869,24.1546532 4.77632869,23.2566532 C5.56232869,21.3376532 8.11532869,20.9216532 9.58232869,22.3876532 L9.58832869,22.3946532 Z"></path>
        </g>
    </g>
</svg>