<?xml version="1.0" encoding="UTF-8"?>
<svg width="32px" height="32px" viewBox="0 0 32 32" version="1.1" xmlns="http://www.w3.org/2000/svg" xmlns:xlink="http://www.w3.org/1999/xlink">
    <!-- Generator: Sketch 51.3 (57544) - http://www.bohemiancoding.com/sketch -->
    <title>tabbarRoutines</title>
    <desc>Created with Sketch.</desc>
    <defs></defs>
    <g stroke="none" stroke-width="1" fill="none" fill-rule="evenodd">
        <g fill="#101010">
            <path d="M17.4062,8.4844 L17.0002,16.0004 C16.9712,16.5204 16.5712,16.9324 16.0712,16.9924 L16.0002,17.0004 L11.5522,17.4064 C10.7762,17.4994 10.0722,16.9444 9.9792,16.1674 C9.8862,15.3904 10.4412,14.6864 11.2182,14.5934 C11.3292,14.5804 11.4462,14.5814 11.5522,14.5934 L14.9392,14.8734 L14.5932,8.4844 C14.5522,7.7084 15.1472,7.0444 15.9242,7.0024 C16.7002,6.9604 17.3642,7.5554 17.4062,8.3324 C17.4092,8.3824 17.4092,8.4344 17.4062,8.4844 M16.0002,4.0004 C9.3732,4.0004 4.0002,9.3734 4.0002,16.0004 C4.0002,22.6274 9.3732,28.0004 16.0002,28.0004 C22.6272,28.0004 28.0002,22.6274 28.0002,16.0004 C28.0002,9.3734 22.6272,4.0004 16.0002,4.0004"></path>
        </g>
    </g>
</svg>