<?xml version="1.0" encoding="UTF-8"?>
<svg width="32px" height="32px" viewBox="0 0 32 32" version="1.1" xmlns="http://www.w3.org/2000/svg" xmlns:xlink="http://www.w3.org/1999/xlink">
    <!-- Generator: Sketch 51.3 (57544) - http://www.bohemiancoding.com/sketch -->
    <title>uicontrolsColorloop</title>
    <desc>Created with Sketch.</desc>
    <defs></defs>
    <g stroke="none" stroke-width="1" fill="none" fill-rule="evenodd">
        <g fill="#101010">
            <path d="M18.2480858,20.164 C18.7810858,20.735 19.3430858,21.273 20.0020858,21.81 C20.6860858,22.373 21.5430858,22.838 22.4140858,23.1 C24.1750858,23.656 26.1540858,23.512 27.8350858,22.673 C29.5200858,21.857 30.8700858,20.373 31.5220858,18.6 C32.1910858,16.832 32.1450858,14.819 31.3900858,13.084 C30.6500858,11.343 29.2050858,9.953 27.4930858,9.226 C25.7640858,8.522 23.8110858,8.487 22.1020858,9.125 C21.6740858,9.281 21.2680858,9.489 20.8860858,9.73 C20.4710858,9.991 20.1460858,10.268 19.8400858,10.542 C19.5460858,10.807 19.2720858,11.076 19.0090858,11.35 L19.0090858,8 C19.0090858,7.447 18.5610858,7 18.0090858,7 C17.4560858,7 17.0090858,7.447 17.0090858,8 L17.0090858,14 C17.0090858,14.553 17.4560858,15 18.0090858,15 L24.0090858,15 C24.5610858,15 25.0090858,14.553 25.0090858,14 C25.0090858,13.447 24.5610858,13 24.0090858,13 L20.3760858,13 C20.6770858,12.763 20.9760858,12.532 21.2720858,12.321 C21.5530858,12.126 21.8310858,11.949 22.0720858,11.842 C22.3460858,11.715 22.6290858,11.617 22.9120858,11.532 C24.0530858,11.204 25.3050858,11.343 26.3210858,11.854 C27.3600858,12.342 28.1750858,13.236 28.6100858,14.268 C29.0370858,15.301 29.0540858,16.503 28.6800858,17.552 C28.3020858,18.604 27.5080858,19.511 26.5070858,20.046 C25.5100858,20.574 24.2900858,20.74 23.1590858,20.467 C22.5810858,20.326 22.0740858,20.098 21.5740858,19.736 C21.1670858,19.45 20.7550858,19.101 20.3400858,18.744 C20.0770858,18.518 19.8260858,18.279 19.5890858,18.028 L13.7440858,11.849 C13.2110858,11.277 12.6490858,10.739 11.9900858,10.203 C11.3060858,9.641 10.4490858,9.175 9.57808575,8.913 C7.81708575,8.357 5.83808575,8.501 4.15708575,9.34 C2.47208575,10.155 1.12208575,11.64 0.470085754,13.413 C-0.198914246,15.182 -0.152914246,17.193 0.602085754,18.929 C1.34208575,20.67 2.78708575,22.06 4.49908575,22.787 C6.22808575,23.49 8.18108575,23.526 9.89108575,22.888 C10.3180858,22.732 10.7250858,22.524 11.1060858,22.282 C11.5210858,22.022 11.8460858,21.744 12.1520858,21.472 C12.4460858,21.207 12.7200858,20.937 12.9830858,20.663 L12.9830858,24.013 C12.9830858,24.565 13.4310858,25.013 13.9830858,25.013 C14.5360858,25.013 14.9830858,24.565 14.9830858,24.013 L14.9830858,18.013 C14.9830858,17.46 14.5360858,17.013 13.9830858,17.013 L7.98308575,17.013 C7.43108575,17.013 6.98308575,17.46 6.98308575,18.013 C6.98308575,18.565 7.43108575,19.013 7.98308575,19.013 L11.6160858,19.013 C11.3160858,19.25 11.0170858,19.48 10.7200858,19.691 C10.4390858,19.888 10.1610858,20.063 9.92008575,20.171 C9.64608575,20.299 9.36308575,20.395 9.08008575,20.48 C7.93908575,20.809 6.68708575,20.67 5.67108575,20.159 C4.63208575,19.672 3.81708575,18.776 3.38208575,17.746 C2.95508575,16.712 2.93808575,15.51 3.31208575,14.461 C3.69008575,13.408 4.48408575,12.502 5.48508575,11.967 C6.48208575,11.438 7.70208575,11.272 8.83308575,11.546 C9.41108575,11.687 9.91808575,11.915 10.4180858,12.277 C10.8250858,12.563 11.2370858,12.912 11.6520858,13.269 C11.9150858,13.494 12.1660858,13.733 12.4030858,13.984 L18.2480858,20.164 Z"></path>
        </g>
    </g>
</svg>