<?xml version="1.0" encoding="UTF-8"?>
<svg width="32px" height="32px" viewBox="0 0 32 32" version="1.1" xmlns="http://www.w3.org/2000/svg" xmlns:xlink="http://www.w3.org/1999/xlink">
    <!-- Generator: Sketch 51.3 (57544) - http://www.bohemiancoding.com/sketch -->
    <title>uicontrolsBlink</title>
    <desc>Created with Sketch.</desc>
    <defs></defs>
    <g stroke="none" stroke-width="1" fill="none" fill-rule="evenodd">
        <g fill="#101010">
            <path d="M24,17 L23,17 C22.45,17 22,16.55 22,16 C22,15.45 22.45,15 23,15 L24,15 C24.55,15 25,15.45 25,16 C25,16.55 24.55,17 24,17 Z M22.413,22.413 C22.024,22.802 21.388,22.802 20.999,22.413 L20.292,21.706 C19.902,21.316 19.902,20.681 20.292,20.292 C20.681,19.902 21.317,19.902 21.706,20.292 L22.413,20.999 C22.802,21.388 22.802,22.024 22.413,22.413 Z M16,20 C13.791,20 12,18.209 12,16 C12,13.791 13.791,12 16,12 C18.209,12 20,13.791 20,16 C20,18.209 18.209,20 16,20 Z M17,24 C17,24.55 16.55,25 16,25 C15.45,25 15,24.55 15,24 L15,23 C15,22.45 15.45,22 16,22 C16.55,22 17,22.45 17,23 L17,24 Z M11.708,21.706 L11.001,22.413 C10.612,22.802 9.976,22.802 9.587,22.413 C9.198,22.024 9.198,21.388 9.587,20.999 L10.294,20.292 C10.683,19.902 11.319,19.902 11.708,20.292 C12.098,20.681 12.098,21.316 11.708,21.706 Z M8,17 C7.45,17 7,16.55 7,16 C7,15.45 7.45,15 8,15 L9,15 C9.55,15 10,15.45 10,16 C10,16.55 9.55,17 9,17 L8,17 Z M9.587,9.587 C9.976,9.198 10.612,9.198 11.001,9.587 L11.708,10.294 C12.098,10.683 12.098,11.319 11.708,11.708 C11.319,12.098 10.683,12.098 10.294,11.708 L9.587,11.001 C9.198,10.612 9.198,9.976 9.587,9.587 Z M15,8 C15,7.45 15.45,7 16,7 C16.55,7 17,7.45 17,8 L17,9 C17,9.55 16.55,10 16,10 C15.45,10 15,9.55 15,9 L15,8 Z M20.292,10.294 L20.999,9.587 C21.388,9.198 22.024,9.198 22.413,9.587 C22.802,9.976 22.802,10.612 22.413,11.001 L21.706,11.708 C21.317,12.098 20.681,12.098 20.292,11.708 C19.902,11.319 19.902,10.683 20.292,10.294 Z M16,4 C9.373,4 4,9.373 4,16 C4,22.627 9.373,28 16,28 C22.627,28 28,22.627 28,16 C28,9.373 22.627,4 16,4 Z"></path>
        </g>
    </g>
</svg>