<?xml version="1.0" encoding="UTF-8"?>
<svg width="32px" height="32px" viewBox="0 0 32 32" version="1.1" xmlns="http://www.w3.org/2000/svg" xmlns:xlink="http://www.w3.org/1999/xlink">
    <!-- Generator: Sketch 51.3 (57544) - http://www.bohemiancoding.com/sketch -->
    <title>uicontrolsAttention</title>
    <desc>Created with Sketch.</desc>
    <defs></defs>
    <g stroke="none" stroke-width="1" fill="none" fill-rule="evenodd">
        <g fill="#101010">
            <path d="M18.4125883,13.9415 L17.1965883,20.0195 C17.0825883,20.5895 16.5825883,21.0005 16.0005883,21.0005 C15.4195883,21.0005 14.9185883,20.5895 14.8045883,20.0195 L13.5895883,13.9415 C13.2845883,12.4205 14.4485883,11.0005 16.0005883,11.0005 C17.5525883,11.0005 18.7165883,12.4205 18.4125883,13.9415 M16.0005883,26.0005 C15.1725883,26.0005 14.5005883,25.3285 14.5005883,24.5005 C14.5005883,23.6715 15.1725883,23.0005 16.0005883,23.0005 C16.8285883,23.0005 17.5005883,23.6715 17.5005883,24.5005 C17.5005883,25.3285 16.8285883,26.0005 16.0005883,26.0005 M29.8545883,26.4315 L16.9125883,4.5175 C16.5055883,3.8275 15.4955883,3.8275 15.0885883,4.5175 L2.14558828,26.4315 C1.73458828,27.1275 2.24258828,28.0005 3.05858828,28.0005 L28.9425883,28.0005 C29.7585883,28.0005 30.2665883,27.1275 29.8545883,26.4315"></path>
        </g>
    </g>
</svg>