<?xml version="1.0" encoding="UTF-8"?>
<svg width="32px" height="32px" viewBox="0 0 32 32" version="1.1" xmlns="http://www.w3.org/2000/svg" xmlns:xlink="http://www.w3.org/1999/xlink">
    <!-- Generator: Sketch 51.3 (57544) - http://www.bohemiancoding.com/sketch -->
    <title>uicontrolsNoMotion</title>
    <desc>Created with Sketch.</desc>
    <defs></defs>
    <g stroke="none" stroke-width="1" fill="none" fill-rule="evenodd">
        <g fill="#101010">
            <path d="M12.2347266,9.04 C11.1307266,9.04 10.2347266,7.669 10.2347266,6.378 C10.2347266,5.087 11.1307266,4.04 12.2347266,4.04 C13.3397266,4.04 14.2347266,5.087 14.2347266,6.378 C14.2347266,7.669 13.3397266,9.04 12.2347266,9.04 Z M19.2034266,14.1093 C19.7394266,14.2433 20.0654266,14.7863 19.9314266,15.3213 C19.8174266,15.7763 19.4104266,16.0793 18.9624266,16.0793 C18.8824266,16.0793 18.8004266,16.0693 18.7194266,16.0483 L14.7184266,15.0483 C14.4484266,14.9813 14.2184266,14.8033 14.0844266,14.5593 L13.6864266,13.8343 L12.8094266,18.0513 C12.8044266,18.0813 12.7844266,18.1033 12.7754266,18.1313 L14.9474266,20.3383 C15.1314266,20.5253 15.2344266,20.7773 15.2344266,21.0403 L15.2344266,27.0403 C15.2344266,27.5923 14.7874266,28.0403 14.2344266,28.0403 C13.6824266,28.0403 13.2344266,27.5923 13.2344266,27.0403 L13.2344266,21.4493 L8.22342662,17.0603 C8.09942662,16.7113 8.06042662,16.3293 8.14042662,15.9413 L8.95442662,12.0293 L7.08042662,12.7783 L5.97042662,16.2823 C5.85642662,16.7373 5.44942662,17.0403 5.00142662,17.0403 C4.92142662,17.0403 4.83942662,17.0303 4.75842662,17.0093 C4.22242662,16.8763 3.89542662,16.3333 4.03042662,15.7973 L5.26542662,11.7963 C5.34342662,11.4853 5.56542662,11.2303 5.86342662,11.1113 L7.85542662,10.3143 C8.32642662,10.1263 8.82842662,10.0293 9.33642662,10.0283 L13.3544266,10.0223 C13.6784266,10.0493 13.9834266,10.2153 14.1504266,10.5203 L15.6284266,13.2143 L19.2034266,14.1093 Z M7.35672662,21.5371 L8.35272662,18.9581 L9.96872662,20.3741 L9.16872662,22.3971 C9.11672662,22.4881 9.06472662,22.5781 9.01272662,22.6691 L5.78172662,26.7081 C5.58372662,26.9541 5.29372662,27.0831 4.99972662,27.0831 C4.78072662,27.0831 4.55972662,27.0121 4.37572662,26.8641 C3.94472662,26.5181 3.87472662,25.8901 4.21872662,25.4581 L7.35672662,21.5371 Z M27.7698266,10.6455 C28.1608266,11.0365 28.1608266,11.6685 27.7698266,12.0595 C27.5748266,12.2545 27.3188266,12.3525 27.0628266,12.3525 C26.8068266,12.3525 26.5508266,12.2545 26.3558266,12.0595 L23.8748266,9.5795 L21.3948266,12.0595 C21.1998266,12.2545 20.9438266,12.3525 20.6878266,12.3525 C20.4318266,12.3525 20.1758266,12.2545 19.9808266,12.0595 C19.5898266,11.6685 19.5898266,11.0365 19.9808266,10.6455 L22.4608266,8.1655 L20.0038266,5.7075 C19.6138266,5.3165 19.6138266,4.6835 20.0038266,4.2925 C20.3948266,3.9025 21.0278266,3.9025 21.4178266,4.2925 L23.8748266,6.7505 L26.3328266,4.2925 C26.7238266,3.9025 27.3568266,3.9025 27.7478266,4.2925 C28.1378266,4.6835 28.1378266,5.3165 27.7478266,5.7075 L25.2898266,8.1655 L27.7698266,10.6455 Z"></path>
        </g>
    </g>
</svg>