<?xml version="1.0" encoding="UTF-8"?>
<svg width="32px" height="32px" viewBox="0 0 32 32" version="1.1" xmlns="http://www.w3.org/2000/svg" xmlns:xlink="http://www.w3.org/1999/xlink">
    <!-- Generator: Sketch 51.3 (57544) - http://www.bohemiancoding.com/sketch -->
    <title>uicontrolsEdit</title>
    <desc>Created with Sketch.</desc>
    <defs></defs>
    <g stroke="none" stroke-width="1" fill="none" fill-rule="evenodd">
        <g fill="#101010">
            <path d="M25.2291892,9.5985 L23.4611892,11.3665 L20.6331892,8.5375 L22.4011892,6.7705 C22.5961892,6.5755 22.9131892,6.5755 23.1081892,6.7705 L25.2291892,8.8915 C25.4241892,9.0865 25.4241892,9.4035 25.2291892,9.5985 Z M6.16018923,26.4535 C5.78718923,26.5555 5.44418923,26.2125 5.54518923,25.8395 L6.75718923,22.4135 L9.58518923,25.2425 L6.16018923,26.4535 Z M27.7071892,8.5355 L23.4641892,4.2925 C23.0741892,3.9025 22.4401892,3.9025 22.0491892,4.2925 L5.69718923,20.6455 L4.03618923,26.7355 C3.83318923,27.4825 4.51718923,28.1665 5.26418923,27.9635 L11.3541892,26.3025 L27.7071892,9.9495 C28.0971892,9.5595 28.0971892,8.9255 27.7071892,8.5355 Z"></path>
        </g>
    </g>
</svg>