<?xml version="1.0" encoding="UTF-8"?>
<svg width="32px" height="32px" viewBox="0 0 32 32" version="1.1" xmlns="http://www.w3.org/2000/svg" xmlns:xlink="http://www.w3.org/1999/xlink">
    <!-- Generator: Sketch 51.3 (57544) - http://www.bohemiancoding.com/sketch -->
    <title>uicontrolsLightList</title>
    <desc>Created with Sketch.</desc>
    <defs></defs>
    <g stroke="none" stroke-width="1" fill="none" fill-rule="evenodd">
        <g fill="#101010">
            <path d="M6.0004,7.9996 C6.0004,6.8956 6.8964,5.9996 8.0004,5.9996 C9.1044,5.9996 10.0004,6.8956 10.0004,7.9996 C10.0004,9.1036 9.1044,9.9996 8.0004,9.9996 C6.8964,9.9996 6.0004,9.1036 6.0004,7.9996 Z M25.0004,24.9996 L13.0004,24.9996 C12.4474,24.9996 12.0004,24.5526 12.0004,23.9996 C12.0004,23.4466 12.4474,22.9996 13.0004,22.9996 L25.0004,22.9996 C25.5534,22.9996 26.0004,23.4466 26.0004,23.9996 C26.0004,24.5526 25.5534,24.9996 25.0004,24.9996 Z M6.0004,15.9996 C6.0004,14.8956 6.8964,13.9996 8.0004,13.9996 C9.1044,13.9996 10.0004,14.8956 10.0004,15.9996 C10.0004,17.1036 9.1044,17.9996 8.0004,17.9996 C6.8964,17.9996 6.0004,17.1036 6.0004,15.9996 Z M25.0004,16.9996 L13.0004,16.9996 C12.4474,16.9996 12.0004,16.5526 12.0004,15.9996 C12.0004,15.4466 12.4474,14.9996 13.0004,14.9996 L25.0004,14.9996 C25.5534,14.9996 26.0004,15.4466 26.0004,15.9996 C26.0004,16.5526 25.5534,16.9996 25.0004,16.9996 Z M6.0004,23.9996 C6.0004,22.8956 6.8964,21.9996 8.0004,21.9996 C9.1044,21.9996 10.0004,22.8956 10.0004,23.9996 C10.0004,25.1036 9.1044,25.9996 8.0004,25.9996 C6.8964,25.9996 6.0004,25.1036 6.0004,23.9996 Z M25.0004,8.9996 L13.0004,8.9996 C12.4474,8.9996 12.0004,8.5526 12.0004,7.9996 C12.0004,7.4466 12.4474,6.9996 13.0004,6.9996 L25.0004,6.9996 C25.5534,6.9996 26.0004,7.4466 26.0004,7.9996 C26.0004,8.5526 25.5534,8.9996 25.0004,8.9996 Z"></path>
        </g>
    </g>
</svg>