<?xml version="1.0" encoding="UTF-8"?>
<svg width="32px" height="32px" viewBox="0 0 32 32" version="1.1" xmlns="http://www.w3.org/2000/svg" xmlns:xlink="http://www.w3.org/1999/xlink">
    <!-- Generator: Sketch 51.3 (57544) - http://www.bohemiancoding.com/sketch -->
    <title>uicontrolsExport</title>
    <desc>Created with Sketch.</desc>
    <defs></defs>
    <g stroke="none" stroke-width="1" fill="none" fill-rule="evenodd">
        <g fill="#101010">
            <path d="M25,11.0056077 C25.553,11.0056077 26,11.4526077 26,12.0056077 L26,26.0056077 C26,26.5586077 25.553,27.0056077 25,27.0056077 L7,27.0056077 C6.447,27.0056077 6,26.5586077 6,26.0056077 L6,12.0056077 C6,11.4526077 6.447,11.0056077 7,11.0056077 L10,11.0056077 C10.553,11.0056077 11,11.4526077 11,12.0056077 C11,12.5586077 10.553,13.0056077 10,13.0056077 L8,13.0056077 L8,25.0056077 L24,25.0056077 L24,13.0056077 L22,13.0056077 C21.447,13.0056077 21,12.5586077 21,12.0056077 C21,11.4526077 21.447,11.0056077 22,11.0056077 L25,11.0056077 Z M12.71,8.71550769 C12.318,9.10750769 11.682,9.10750769 11.29,8.71550769 C10.898,8.32250769 10.898,7.68750769 11.29,7.29550769 L15.29,3.29550769 L15.296,3.28950769 C15.688,2.90150769 16.321,2.90350769 16.71,3.29550769 L20.71,7.29550769 L20.707,7.29850769 C21.098,7.68950769 21.101,8.32450769 20.71,8.71550769 L20.704,8.72150769 C20.313,9.11050769 19.679,9.10750769 19.29,8.71550769 L17,6.41550769 L17,18.0055077 C17,18.5585077 16.553,19.0055077 16,19.0055077 C15.447,19.0055077 15,18.5585077 15,18.0055077 L15,6.41550769 L12.71,8.71550769 Z"></path>
        </g>
    </g>
</svg>