<?xml version="1.0" encoding="UTF-8"?>
<svg width="32px" height="32px" viewBox="0 0 32 32" version="1.1" xmlns="http://www.w3.org/2000/svg" xmlns:xlink="http://www.w3.org/1999/xlink">
    <!-- Generator: Sketch 51.3 (57544) - http://www.bohemiancoding.com/sketch -->
    <title>uicontrolsDestroy</title>
    <desc>Created with Sketch.</desc>
    <defs></defs>
    <g stroke="none" stroke-width="1" fill="none" fill-rule="evenodd">
        <g fill="#101010">
            <path d="M16,28 C9.372583,28 4,22.627417 4,16 C4,9.372583 9.372583,4 16,4 C22.627417,4 28,9.372583 28,16 C28,22.627417 22.627417,28 16,28 Z M20.8093593,19.3985976 L18.2543801,15.9956175 L20.8093593,12.5916365 C20.8243886,12.5726198 20.8273944,12.5475979 20.8404198,12.5275804 C20.8644667,12.4895471 20.8875116,12.4545164 20.9065487,12.4134805 C20.9245839,12.3744463 20.9376092,12.336413 20.9506346,12.2963779 C20.964662,12.2523394 20.9766854,12.2093017 20.984701,12.1642622 C20.9917147,12.1242272 20.9967244,12.0871947 20.9987283,12.0461588 C21.0017342,12.004122 20.9987283,11.9640869 20.9967244,11.9220501 C20.9937186,11.8760098 20.9877069,11.8319712 20.9786893,11.7879327 C20.9696717,11.7468967 20.9606541,11.7088634 20.9476288,11.6698292 C20.9336014,11.6307951 20.9165682,11.5947635 20.8985331,11.5577311 C20.8764901,11.5136925 20.8534452,11.4736574 20.8253905,11.4336224 C20.8113632,11.412604 20.8073554,11.3865812 20.7903222,11.3665637 C20.7782988,11.3505496 20.7592617,11.3435435 20.7472382,11.3285303 C20.7342129,11.315519 20.730205,11.2975032 20.7161777,11.2844918 C20.6991445,11.266476 20.6740957,11.2604707 20.6560606,11.2444567 C20.6380254,11.2284427 20.6280059,11.2054225 20.6089688,11.1914103 C20.5889297,11.1763971 20.5648829,11.1733945 20.5448438,11.161384 C20.5067696,11.1363621 20.4696974,11.1133419 20.4296193,11.0933244 C20.3905431,11.0763095 20.3524689,11.0632981 20.3113888,11.0492858 C20.2693068,11.0362744 20.2282268,11.0252648 20.1851428,11.0172578 C20.1430608,11.0092507 20.1039847,11.0032455 20.0619026,11.0012437 C20.0188187,10.9982411 19.9797425,11.0012437 19.9366586,11.0042464 C19.8925727,11.007249 19.8504906,11.0122534 19.8064047,11.0222621 C19.7653247,11.0302691 19.7262485,11.039277 19.6861704,11.0532893 C19.6460923,11.0673016 19.611024,11.0843165 19.5729498,11.1033331 C19.5298658,11.1233507 19.4897877,11.1473717 19.4497096,11.1743954 C19.4276666,11.1894085 19.4026178,11.193412 19.3815768,11.209426 L15.9999867,13.9127935 L12.6183966,11.209426 C12.5983575,11.193412 12.5733087,11.1904094 12.5522677,11.1753962 C12.5111877,11.1473717 12.4711096,11.1233507 12.4260217,11.1023323 C12.3889495,11.0833156 12.3528792,11.0673016 12.313803,11.0532893 C12.2747269,11.0402779 12.2376546,11.03127 12.1985785,11.023263 C12.1524886,11.0132542 12.1074008,11.007249 12.0613109,11.0042464 C12.018227,11.0012437 11.9781489,10.999242 11.9360669,11.0012437 C11.8959888,11.0042464 11.8599185,11.0092507 11.8218443,11.0162569 C11.7757544,11.0242639 11.7316685,11.0362744 11.6875826,11.0502867 C11.6455006,11.0632981 11.6064245,11.0773103 11.5673483,11.0953261 C11.5292741,11.1143428 11.4952077,11.1363621 11.4581355,11.1593822 C11.4370945,11.1723936 11.4120456,11.1753962 11.3920066,11.1914103 C11.3719675,11.2054225 11.361948,11.2284427 11.3449148,11.2444567 C11.3258777,11.2604707 11.3018309,11.266476 11.2837957,11.2844918 C11.2697684,11.2975032 11.2667625,11.315519 11.2537371,11.3285303 C11.2407117,11.3435435 11.2226766,11.3505496 11.2096512,11.3665637 C11.192618,11.3865812 11.1886102,11.412604 11.1755848,11.4336224 C11.1465282,11.4736574 11.1234833,11.5136925 11.1024423,11.5577311 C11.0834052,11.5947635 11.066372,11.6307951 11.0533466,11.6698292 C11.0393193,11.7088634 11.0303017,11.7468967 11.0212841,11.7879327 C11.0132685,11.8319712 11.0072568,11.8760098 11.0042509,11.9220501 C11.0012451,11.9640869 10.9982392,12.004122 11.0012451,12.0461588 C11.003249,12.0871947 11.0092607,12.1242272 11.0162744,12.1642622 C11.023288,12.2093017 11.0353115,12.2523394 11.0503407,12.2963779 C11.0623642,12.336413 11.0753896,12.3744463 11.0944267,12.4134805 C11.1124618,12.4545164 11.1365087,12.4895471 11.1595536,12.5275804 C11.1735809,12.5475979 11.1765868,12.5726198 11.1906141,12.5916365 L13.7455933,15.9956175 L11.1906141,19.3985976 C11.1765868,19.4186151 11.1735809,19.4426362 11.1595536,19.4626537 C11.1365087,19.5016879 11.1124618,19.5367186 11.0944267,19.5767536 C11.0753896,19.6157878 11.0623642,19.6538211 11.0503407,19.6938562 C11.0353115,19.7378947 11.023288,19.7809324 11.0162744,19.8259719 C11.0092607,19.8660069 11.003249,19.9030394 11.0012451,19.9440753 C10.9982392,19.9861121 11.0012451,20.0261472 11.0042509,20.068184 C11.0072568,20.1142243 11.0132685,20.1582629 11.0212841,20.2033023 C11.0303017,20.2433374 11.0393193,20.2813707 11.0533466,20.3204049 C11.066372,20.359439 11.0834052,20.3954706 11.1024423,20.432503 C11.1234833,20.4765416 11.1465282,20.5165766 11.1755848,20.5566117 C11.1886102,20.578631 11.192618,20.6036529 11.2096512,20.6246713 C11.2216746,20.6386836 11.2387078,20.643688 11.2507313,20.6566994 C11.2647586,20.6717125 11.2697684,20.69173 11.2837957,20.7067432 C11.3018309,20.7237581 11.3258777,20.7297633 11.3449148,20.7467782 C11.361948,20.7617914 11.3719675,20.7848116 11.3920066,20.7988238 C11.4290788,20.8268484 11.4711608,20.8388589 11.510237,20.8608782 C11.5382917,20.8768922 11.5623385,20.8979106 11.5913952,20.910922 C11.6094303,20.918929 11.6274655,20.9249343 11.6465026,20.9319404 C11.7587213,20.9739772 11.8749478,21 11.9911743,21 L11.9921762,21 L11.9931782,21 C12.1124105,21 12.2306409,20.9739772 12.3458655,20.9309395 C12.3639006,20.9229325 12.3819358,20.9139246 12.4009729,20.9059176 C12.4330354,20.8909045 12.4580842,20.8698861 12.4871408,20.8528712 C12.5312267,20.8278492 12.5783185,20.8128361 12.6183966,20.780808 L15.9999867,18.0784415 L19.3815768,20.780808 C19.4216549,20.8128361 19.4687467,20.8278492 19.5128326,20.8528712 C19.5418892,20.8698861 19.56794,20.8909045 19.5990005,20.9059176 C19.6190396,20.9139246 19.6360728,20.9229325 19.6551099,20.9309395 C19.7693325,20.9739772 19.8875629,21 20.0067953,21 L20.0077972,21 L20.0087992,21 C20.1250257,21 20.2422541,20.9739772 20.3534709,20.9319404 C20.372508,20.9249343 20.3905431,20.918929 20.4095802,20.9099211 C20.4386368,20.8969097 20.4606798,20.8778931 20.4887345,20.861879 C20.5288126,20.8388589 20.5718965,20.8278492 20.6089688,20.7988238 C20.6280059,20.7848116 20.6380254,20.7617914 20.6560606,20.7467782 C20.6740957,20.7297633 20.6991445,20.7237581 20.7161777,20.7067432 C20.731207,20.69173 20.7362168,20.6717125 20.7492421,20.6566994 C20.7612656,20.643688 20.7793007,20.6386836 20.7903222,20.6246713 C20.8073554,20.6036529 20.8113632,20.578631 20.8253905,20.5566117 C20.8534452,20.5165766 20.8764901,20.4765416 20.8985331,20.432503 C20.9165682,20.3954706 20.9336014,20.359439 20.9476288,20.3204049 C20.9606541,20.2813707 20.9696717,20.2433374 20.9786893,20.2033023 C20.9877069,20.1582629 20.9937186,20.1142243 20.9967244,20.068184 C20.9987283,20.0261472 21.0017342,19.9861121 20.9987283,19.9440753 C20.9967244,19.9030394 20.9917147,19.8660069 20.984701,19.8259719 C20.9766854,19.7809324 20.964662,19.7378947 20.9506346,19.6938562 C20.9376092,19.6538211 20.9245839,19.6157878 20.9065487,19.5767536 C20.8875116,19.5367186 20.8644667,19.5016879 20.8404198,19.4626537 C20.8273944,19.4426362 20.8243886,19.4186151 20.8093593,19.3985976 Z"></path>
        </g>
    </g>
</svg>