<?xml version="1.0" encoding="UTF-8"?>
<svg width="32px" height="32px" viewBox="0 0 32 32" version="1.1" xmlns="http://www.w3.org/2000/svg" xmlns:xlink="http://www.w3.org/1999/xlink">
    <!-- Generator: Sketch 51.3 (57544) - http://www.bohemiancoding.com/sketch -->
    <title>uicontrolsMotionSensitivity</title>
    <desc>Created with Sketch.</desc>
    <defs></defs>
    <g stroke="none" stroke-width="1" fill="none" fill-rule="evenodd">
        <g fill="#101010">
            <path d="M26.9417266,11.806376 C27.4867266,11.790376 27.9657266,12.195376 27.9987266,12.745376 C28.0307266,13.297376 27.6107266,13.770376 27.0587266,13.802376 C26.8947266,13.812376 26.7317266,13.817376 26.5687266,13.817376 C24.3527266,13.817376 22.2147266,12.937376 20.6397266,11.362376 C18.9487266,9.67037602 18.0587266,7.33137602 18.1997266,4.94337602 C18.2317266,4.39137602 18.7107266,3.96837602 19.2557266,4.00337602 C19.8077266,4.03537602 20.2277266,4.50837602 20.1957266,5.06037602 C20.0887266,6.87837602 20.7667266,8.66037602 22.0537266,9.94837602 C23.3407266,11.236376 25.1137266,11.915376 26.9417266,11.806376 Z M26.9632266,10.593476 C25.5042266,10.539476 24.1302266,9.94047602 23.0962266,8.90647602 C22.0622266,7.87147602 21.4622266,6.49747602 21.4082266,5.03847602 C21.3882266,4.48747602 21.8182266,4.02347602 22.3702266,4.00247602 C22.9332266,3.96247602 23.3872266,4.41247602 23.4062266,4.96447602 C23.4422266,5.91747602 23.8342266,6.81547602 24.5102266,7.49147602 C25.1872266,8.16747602 26.0842266,8.56047602 27.0372266,8.59547602 C27.5892266,8.61547602 28.0202266,9.07947602 27.9992266,9.63147602 C27.9802266,10.170476 27.5362266,10.594476 27.0012266,10.594476 C26.9882266,10.594476 26.9762266,10.594476 26.9632266,10.593476 Z M25.5530266,6.45187602 C25.2590266,6.15687602 25.0150266,5.82487602 24.8270266,5.46387602 C24.5730266,4.97287602 24.7630266,4.36987602 25.2520266,4.11487602 C25.7430266,3.85787602 26.3470266,4.05187602 26.6010266,4.53987602 C26.6960266,4.72187602 26.8180266,4.88787602 26.9660266,5.03587602 C27.1150266,5.18387602 27.2820266,5.30687602 27.4620266,5.40087602 C27.9510266,5.65587602 28.1420266,6.25987602 27.8870266,6.74987602 C27.7090266,7.09187602 27.3610266,7.28787602 26.9990266,7.28787602 C26.8440266,7.28787602 26.6860266,7.25187602 26.5380266,7.17487602 C26.1790266,6.98787602 25.8480266,6.74487602 25.5530266,6.45187602 Z M12.2347266,9.00167602 C11.1307266,9.00167602 10.2347266,7.63067602 10.2347266,6.33967602 C10.2347266,5.04867602 11.1307266,4.00167602 12.2347266,4.00167602 C13.3397266,4.00167602 14.2347266,5.04867602 14.2347266,6.33967602 C14.2347266,7.63067602 13.3397266,9.00167602 12.2347266,9.00167602 Z M7.35672662,21.498776 L8.35272662,18.919776 L9.96872662,20.335776 L9.16872662,22.358776 C9.11672662,22.449776 9.06472662,22.539776 9.01272662,22.630776 L5.78172662,26.669776 C5.58372662,26.915776 5.29372662,27.044776 4.99972662,27.044776 C4.78072662,27.044776 4.55972662,26.973776 4.37572662,26.825776 C3.94472662,26.479776 3.87472662,25.851776 4.21872662,25.419776 L7.35672662,21.498776 Z M19.2034266,14.070976 C19.7394266,14.204976 20.0654266,14.747976 19.9314266,15.282976 C19.8174266,15.737976 19.4104266,16.040976 18.9624266,16.040976 C18.8824266,16.040976 18.8004266,16.030976 18.7194266,16.009976 L14.7184266,15.009976 C14.4484266,14.942976 14.2184266,14.764976 14.0844266,14.520976 L13.6864266,13.795976 L12.8094266,18.012976 C12.8044266,18.042976 12.7844266,18.064976 12.7754266,18.092976 L14.9474266,20.299976 C15.1314266,20.486976 15.2344266,20.738976 15.2344266,21.001976 L15.2344266,27.001976 C15.2344266,27.553976 14.7874266,28.001976 14.2344266,28.001976 C13.6824266,28.001976 13.2344266,27.553976 13.2344266,27.001976 L13.2344266,21.410976 L8.22342662,17.021976 C8.09942662,16.672976 8.06042662,16.290976 8.14042662,15.902976 L8.95442662,11.990976 L7.08042662,12.739976 L5.97042662,16.243976 C5.85642662,16.698976 5.44942662,17.001976 5.00142662,17.001976 C4.92142662,17.001976 4.83942662,16.991976 4.75842662,16.970976 C4.22242662,16.837976 3.89542662,16.294976 4.03042662,15.758976 L5.26542662,11.757976 C5.34342662,11.446976 5.56542662,11.191976 5.86342662,11.072976 L7.85542662,10.275976 C8.32642662,10.087976 8.82842662,9.99097602 9.33642662,9.98997602 L13.3544266,9.98397602 C13.6784266,10.010976 13.9834266,10.176976 14.1504266,10.481976 L15.6284266,13.175976 L19.2034266,14.070976 Z"></path>
        </g>
    </g>
</svg>