<?xml version="1.0" encoding="UTF-8"?>
<svg width="32px" height="32px" viewBox="0 0 32 32" version="1.1" xmlns="http://www.w3.org/2000/svg" xmlns:xlink="http://www.w3.org/1999/xlink">
    <!-- Generator: Sketch 51.3 (57544) - http://www.bohemiancoding.com/sketch -->
    <title>uicontrolsLastState</title>
    <desc>Created with Sketch.</desc>
    <defs></defs>
    <g stroke="none" stroke-width="1" fill="none" fill-rule="evenodd">
        <g fill="#101010">
            <path d="M18.99925,9.99975 L10.82725,9.99975 L13.41325,7.41375 C14.19425,6.63275 14.19425,5.36675 13.41325,4.58575 C12.63225,3.80475 11.36625,3.80475 10.58525,4.58575 L4.58625,10.58475 C4.49325,10.67775 4.40925,10.78075 4.33525,10.89175 C4.30425,10.93775 4.28225,10.98975 4.25525,11.03975 C4.22025,11.10375 4.18125,11.16675 4.15125,11.23475 C4.12525,11.30075 4.10925,11.36775 4.09025,11.43575 C4.07325,11.49275 4.05125,11.54875 4.03825,11.60775 C3.98725,11.86675 3.98725,12.13275 4.03825,12.39175 C4.05125,12.45075 4.07325,12.50675 4.09025,12.56375 C4.10925,12.63175 4.12525,12.69875 4.15125,12.76475 C4.18125,12.83275 4.22025,12.89575 4.25525,12.95975 C4.28225,13.00975 4.30425,13.06175 4.33525,13.10775 C4.40925,13.21875 4.49325,13.32175 4.58625,13.41475 L10.58525,19.41375 C10.97625,19.80475 11.48725,19.99975 11.99925,19.99975 C12.51125,19.99975 13.02225,19.80475 13.41325,19.41375 C14.19425,18.63275 14.19425,17.36675 13.41325,16.58575 L10.82725,13.99975 L18.99925,13.99975 C21.75625,13.99975 23.99925,16.24275 23.99925,18.99975 C23.99925,21.75675 21.75625,23.99975 18.99925,23.99975 L15.99925,23.99975 C14.89525,23.99975 13.99925,24.89575 13.99925,25.99975 C13.99925,27.10375 14.89525,27.99975 15.99925,27.99975 L18.99925,27.99975 C23.96225,27.99975 27.99925,23.96275 27.99925,18.99975 C27.99925,14.03675 23.96225,9.99975 18.99925,9.99975"></path>
        </g>
    </g>
</svg>