<?xml version="1.0" encoding="UTF-8"?>
<svg width="32px" height="32px" viewBox="0 0 32 32" version="1.1" xmlns="http://www.w3.org/2000/svg" xmlns:xlink="http://www.w3.org/1999/xlink">
    <!-- Generator: Sketch 51.3 (57544) - http://www.bohemiancoding.com/sketch -->
    <title>uicontrolsPlus</title>
    <desc>Created with Sketch.</desc>
    <defs></defs>
    <g stroke="none" stroke-width="1" fill="none" fill-rule="evenodd">
        <g fill="#101010">
            <path d="M14,14 L14,10 C14,8.8954305 14.8954305,8 16,8 C17.1045695,8 18,8.8954305 18,10 L18,14 L22,14 C23.1045695,14 24,14.8954305 24,16 C24,17.1045695 23.1045695,18 22,18 L18,18 L18,22 C18,23.1045695 17.1045695,24 16,24 C14.8954305,24 14,23.1045695 14,22 L14,18 L10,18 C8.8954305,18 8,17.1045695 8,16 C8,14.8954305 8.8954305,14 10,14 L14,14 Z"></path>
        </g>
    </g>
</svg>